<?xml version="1.0" encoding="UTF-8"?>
<!DOCTYPE svg PUBLIC "-//W3C//DTD SVG 1.1//EN" "http://www.w3.org/Graphics/SVG/1.1/DTD/svg11.dtd">
<svg xmlns="http://www.w3.org/2000/svg" version="1.1" width="512px" height="512px" style="shape-rendering:geometricPrecision; text-rendering:geometricPrecision; image-rendering:optimizeQuality; fill-rule:evenodd; clip-rule:evenodd" xmlns:xlink="http://www.w3.org/1999/xlink">
<g><path style="opacity:0.998" fill="#d17bec" d="M 264.5,41.5 C 261.073,49.428 255.407,55.2613 247.5,59C 229.898,67.836 212.565,67.5027 195.5,58C 188.323,52.6711 183.323,45.8378 180.5,37.5C 187.92,20.9579 200.587,14.7913 218.5,19C 229.271,22.7698 236.271,30.1031 239.5,41C 247.827,41.4997 256.16,41.6664 264.5,41.5 Z"/></g>
<g><path style="opacity:1" fill="#fdd6fe" d="M 215.5,32.5 C 207.04,32.6374 201.373,36.6374 198.5,44.5C 196.336,35.8818 199.836,31.2152 209,30.5C 211.544,30.336 213.71,31.0027 215.5,32.5 Z"/></g>
<g><path style="opacity:1" fill="#fefcfe" d="M 215.5,32.5 C 219.24,35.5994 220.407,39.5994 219,44.5C 218.215,46.286 217.049,47.786 215.5,49C 211.625,50.5204 207.625,50.8538 203.5,50C 200.921,48.9243 199.254,47.091 198.5,44.5C 201.373,36.6374 207.04,32.6374 215.5,32.5 Z"/></g>
<g><path style="opacity:0.996" fill="#be45e4" d="M 180.5,37.5 C 183.323,45.8378 188.323,52.6711 195.5,58C 212.565,67.5027 229.898,67.836 247.5,59C 255.407,55.2613 261.073,49.428 264.5,41.5C 269.782,40.2965 272.782,42.2965 273.5,47.5C 253.636,72.5119 227.97,82.0119 196.5,76C 179.207,70.8933 169.873,59.3933 168.5,41.5C 172.226,41.8226 175.893,41.4892 179.5,40.5C 180.127,39.5832 180.461,38.5832 180.5,37.5 Z"/></g>
<g><path style="opacity:1" fill="#82349a" d="M 168.5,41.5 C 169.873,59.3933 179.207,70.8933 196.5,76C 227.97,82.0119 253.636,72.5119 273.5,47.5C 273.5,47.8333 273.5,48.1667 273.5,48.5C 275.9,59.6968 276.9,71.0302 276.5,82.5C 277.092,87.5663 274.758,90.0663 269.5,90C 227.5,90.772 185.5,91.1053 143.5,91C 141.211,89.0076 139.877,86.5076 139.5,83.5C 137.938,71.706 138.604,60.0393 141.5,48.5C 141.839,45.3308 143.505,43.1641 146.5,42C 153.826,41.5003 161.159,41.3337 168.5,41.5 Z"/></g>
<g><path style="opacity:0.989" fill="#ffa911" d="M 119.5,48.5 C 126.833,48.5 134.167,48.5 141.5,48.5C 138.604,60.0393 137.938,71.706 139.5,83.5C 126.833,83.5 114.167,83.5 101.5,83.5C 106.208,71.0814 112.208,59.4147 119.5,48.5 Z"/></g>
<g><path style="opacity:1" fill="#ff8507" d="M 119.5,48.5 C 112.208,59.4147 106.208,71.0814 101.5,83.5C 93.6724,83.9859 86.0057,84.6525 78.5,85.5C 68.8554,87.6461 63.0221,93.6461 61,103.5C 47.7799,219.005 46.1133,334.671 56,450.5C 57.7361,457.237 61.9028,461.737 68.5,464C 74.7702,465.076 81.1035,465.576 87.5,465.5C 167.495,463.551 247.495,461.885 327.5,460.5C 332.447,468.113 338.447,474.78 345.5,480.5C 252.495,482.225 159.495,484.225 66.5,486.5C 56.3757,487.428 47.0424,485.261 38.5,480C 35.3983,475.963 33.2316,471.463 32,466.5C 21.8302,335.655 23.8302,204.988 38,74.5C 39.0237,63.1548 44.8571,55.6548 55.5,52C 76.7875,50.1427 98.1208,48.976 119.5,48.5 Z"/></g>
<g><path style="opacity:1" fill="#ffc253" d="M 273.5,48.5 C 302.169,48.3334 330.835,48.5 359.5,49C 370.067,51.2356 376.234,57.7356 378,68.5C 382.642,122.398 385.476,176.398 386.5,230.5C 384.49,233.027 381.823,234.861 378.5,236C 373.859,237.603 369.192,239.103 364.5,240.5C 363.548,242.045 363.215,243.712 363.5,245.5C 361.739,198.953 359.239,152.286 356,105.5C 355.745,93.9403 350.245,86.4403 339.5,83C 318.503,82.5 297.503,82.3334 276.5,82.5C 276.9,71.0302 275.9,59.6968 273.5,48.5 Z"/></g>
<g><path style="opacity:1" fill="#fdd5fd" d="M 276.5,82.5 C 297.503,82.3334 318.503,82.5 339.5,83C 350.245,86.4403 355.745,93.9403 356,105.5C 359.239,152.286 361.739,198.953 363.5,245.5C 363.595,260.84 363.929,276.173 364.5,291.5C 314.831,320.56 262.831,325.893 208.5,307.5C 229.523,307.312 250.523,306.479 271.5,305C 293.775,302.631 316.109,300.964 338.5,300C 340.527,298.604 340.86,296.938 339.5,295C 304.815,296.334 270.149,298.334 235.5,301C 220.837,301.5 206.17,301.667 191.5,301.5C 168.734,291.074 148.734,276.741 131.5,258.5C 137.29,258.904 142.956,258.404 148.5,257C 151.231,254.103 152.231,250.603 151.5,246.5C 151.855,230.437 151.022,214.437 149,198.5C 148.5,198 148,197.5 147.5,197C 129.17,196.5 110.836,196.333 92.5,196.5C 79.687,160.232 77.0203,123.232 84.5,85.5C 82.5,85.5 80.5,85.5 78.5,85.5C 86.0057,84.6525 93.6724,83.9859 101.5,83.5C 114.167,83.5 126.833,83.5 139.5,83.5C 139.877,86.5076 141.211,89.0076 143.5,91C 185.5,91.1053 227.5,90.772 269.5,90C 274.758,90.0663 277.092,87.5663 276.5,82.5 Z"/></g>
<g><path style="opacity:1" fill="#fcb7fd" d="M 78.5,85.5 C 80.5,85.5 82.5,85.5 84.5,85.5C 77.0203,123.232 79.687,160.232 92.5,196.5C 90.901,196.232 89.5676,196.566 88.5,197.5C 86.9826,197.511 85.8159,198.177 85,199.5C 82.1735,218.455 81.8402,237.455 84,256.5C 84.5,257 85,257.5 85.5,258C 100.83,258.5 116.163,258.667 131.5,258.5C 148.734,276.741 168.734,291.074 191.5,301.5C 191.261,303.467 191.594,305.301 192.5,307C 197.823,307.499 203.156,307.666 208.5,307.5C 262.831,325.893 314.831,320.56 364.5,291.5C 364.182,296.032 364.515,300.366 365.5,304.5C 365.5,319.5 365.5,334.5 365.5,349.5C 340.16,351.498 324.16,364.832 317.5,389.5C 290.137,390.812 262.804,392.645 235.5,395C 220.837,395.5 206.17,395.667 191.5,395.5C 191.141,397.766 191.808,399.599 193.5,401C 199.333,401.167 205.167,401.333 211,401.5C 245.853,399.853 280.686,397.853 315.5,395.5C 312.457,418.558 316.457,440.225 327.5,460.5C 247.495,461.885 167.495,463.551 87.5,465.5C 81.1035,465.576 74.7702,465.076 68.5,464C 61.9028,461.737 57.7361,457.237 56,450.5C 46.1133,334.671 47.7799,219.005 61,103.5C 63.0221,93.6461 68.8554,87.6461 78.5,85.5 Z"/></g>
<g><path style="opacity:1" fill="#45df2f" d="M 122.5,108.5 C 128.833,108.5 135.167,108.5 141.5,108.5C 140.798,122.595 146.131,133.761 157.5,142C 195.312,163.433 234.979,167.433 276.5,154C 290.835,149 304.168,142.167 316.5,133.5C 317.48,130.914 317.813,128.247 317.5,125.5C 319.893,137.247 318.393,148.58 313,159.5C 309.835,163.666 305.668,166.166 300.5,167C 238.51,173 176.51,173 114.5,167C 111.427,166.261 109.26,164.428 108,161.5C 109.655,146.92 110.655,132.253 111,117.5C 112.457,111.516 116.291,108.516 122.5,108.5 Z"/></g>
<g><path style="opacity:1" fill="#57fe36" d="M 141.5,108.5 C 144.85,108.335 148.183,108.502 151.5,109C 158.931,120.888 169.264,129.222 182.5,134C 213.064,144.854 243.731,145.187 274.5,135C 287.733,129.237 299.066,121.07 308.5,110.5C 314.794,113.408 317.794,118.408 317.5,125.5C 317.813,128.247 317.48,130.914 316.5,133.5C 304.168,142.167 290.835,149 276.5,154C 234.979,167.433 195.312,163.433 157.5,142C 146.131,133.761 140.798,122.595 141.5,108.5 Z"/></g>
<g><path style="opacity:1" fill="#8afe73" d="M 122.5,108.5 C 182.332,107.335 242.332,107.168 302.5,108C 304.723,108.566 306.723,109.4 308.5,110.5C 299.066,121.07 287.733,129.237 274.5,135C 243.731,145.187 213.064,144.854 182.5,134C 169.264,129.222 158.931,120.888 151.5,109C 148.183,108.502 144.85,108.335 141.5,108.5C 135.167,108.5 128.833,108.5 122.5,108.5 Z"/></g>
<g><path style="opacity:1" fill="#fe3979" d="M 88.5,197.5 C 91.8333,197.5 95.1667,197.5 98.5,197.5C 97.9679,205.369 99.6346,212.702 103.5,219.5C 100.848,220.152 99.1811,221.819 98.5,224.5C 100.853,230.039 103.853,235.205 107.5,240C 111.744,240.603 115.077,239.103 117.5,235.5C 124.39,238.413 131.39,241.246 138.5,244C 142.878,244.679 147.211,245.512 151.5,246.5C 152.231,250.603 151.231,254.103 148.5,257C 142.956,258.404 137.29,258.904 131.5,258.5C 116.163,258.667 100.83,258.5 85.5,258C 85,257.5 84.5,257 84,256.5C 81.8402,237.455 82.1735,218.455 85,199.5C 85.8159,198.177 86.9826,197.511 88.5,197.5 Z"/></g>
<g><path style="opacity:1" fill="#ff79a1" d="M 88.5,197.5 C 89.5676,196.566 90.901,196.232 92.5,196.5C 110.836,196.333 129.17,196.5 147.5,197C 148,197.5 148.5,198 149,198.5C 151.022,214.437 151.855,230.437 151.5,246.5C 147.211,245.512 142.878,244.679 138.5,244C 131.39,241.246 124.39,238.413 117.5,235.5C 122.839,230.839 128.506,226.505 134.5,222.5C 136.025,217.191 134.025,214.691 128.5,215C 122.478,218.678 116.811,222.845 111.5,227.5C 109.762,223.762 107.095,221.095 103.5,219.5C 99.6346,212.702 97.9679,205.369 98.5,197.5C 95.1667,197.5 91.8333,197.5 88.5,197.5 Z"/></g>
<g><path style="opacity:1" fill="#171016" d="M 330.5,205.5 C 333.518,205.335 336.518,205.502 339.5,206C 340.833,207.667 340.833,209.333 339.5,211C 290.932,215.657 242.266,218.324 193.5,219C 191.845,217.556 191.178,215.722 191.5,213.5C 238.081,212.692 284.414,210.026 330.5,205.5 Z"/></g>
<g><path style="opacity:1" fill="#fffafb" d="M 117.5,235.5 C 115.077,239.103 111.744,240.603 107.5,240C 103.853,235.205 100.853,230.039 98.5,224.5C 99.1811,221.819 100.848,220.152 103.5,219.5C 107.095,221.095 109.762,223.762 111.5,227.5C 116.811,222.845 122.478,218.678 128.5,215C 134.025,214.691 136.025,217.191 134.5,222.5C 128.506,226.505 122.839,230.839 117.5,235.5 Z"/></g>
<g><path style="opacity:1" fill="#130c13" d="M 324.5,231.5 C 329.511,231.334 334.511,231.501 339.5,232C 340.991,234.022 340.658,235.688 338.5,237C 297.575,240.663 256.575,243.163 215.5,244.5C 207.833,244.333 200.167,244.167 192.5,244C 190.816,241.214 191.483,239.38 194.5,238.5C 206.807,239.628 219.14,239.794 231.5,239C 262.692,236.964 293.692,234.464 324.5,231.5 Z"/></g>
<g><path style="opacity:0.992" fill="#ffa90d" d="M 386.5,230.5 C 387.192,239.401 387.859,248.401 388.5,257.5C 383.04,263.063 378.54,269.396 375,276.5C 371.121,285.636 367.955,294.97 365.5,304.5C 364.515,300.366 364.182,296.032 364.5,291.5C 363.929,276.173 363.595,260.84 363.5,245.5C 363.215,243.712 363.548,242.045 364.5,240.5C 369.192,239.103 373.859,237.603 378.5,236C 381.823,234.861 384.49,233.027 386.5,230.5 Z"/></g>
<g><path style="opacity:1" fill="#ff8506" d="M 388.5,257.5 C 389.048,292.164 389.382,326.831 389.5,361.5C 385.35,357.681 380.683,354.681 375.5,352.5C 372.134,351.284 368.801,350.284 365.5,349.5C 365.5,334.5 365.5,319.5 365.5,304.5C 367.955,294.97 371.121,285.636 375,276.5C 378.54,269.396 383.04,263.063 388.5,257.5 Z"/></g>
<g><path style="opacity:1" fill="#fe3879" d="M 92.5,289.5 C 94.5,289.5 96.5,289.5 98.5,289.5C 97.9398,296.585 99.2731,303.252 102.5,309.5C 100.081,310.257 98.7474,311.923 98.5,314.5C 100.728,319.289 103.228,323.955 106,328.5C 106.956,329.894 108.289,330.561 110,330.5C 112.542,329.795 114.708,328.461 116.5,326.5C 127.273,333.05 138.939,337.05 151.5,338.5C 151.664,341.187 151.497,343.854 151,346.5C 150.5,348.333 149.333,349.5 147.5,350C 126.492,350.833 105.492,350.666 84.5,349.5C 82.0172,332.222 81.8506,314.888 84,297.5C 83.6083,291.23 86.4417,288.563 92.5,289.5 Z"/></g>
<g><path style="opacity:1" fill="#ff79a1" d="M 92.5,289.5 C 110.662,288.338 128.995,288.171 147.5,289C 149.101,292.267 149.934,295.767 150,299.5C 151.166,312.474 151.666,325.474 151.5,338.5C 138.939,337.05 127.273,333.05 116.5,326.5C 122.478,321.364 128.645,316.364 135,311.5C 135.833,306.333 133.667,304.167 128.5,305C 122.412,308.588 116.745,312.754 111.5,317.5C 109.957,314.914 108.291,312.414 106.5,310C 105.207,309.51 103.873,309.343 102.5,309.5C 99.2731,303.252 97.9398,296.585 98.5,289.5C 96.5,289.5 94.5,289.5 92.5,289.5 Z"/></g>
<g><path style="opacity:1" fill="#171017" d="M 208.5,307.5 C 203.156,307.666 197.823,307.499 192.5,307C 191.594,305.301 191.261,303.467 191.5,301.5C 206.17,301.667 220.837,301.5 235.5,301C 270.149,298.334 304.815,296.334 339.5,295C 340.86,296.938 340.527,298.604 338.5,300C 316.109,300.964 293.775,302.631 271.5,305C 250.523,306.479 229.523,307.312 208.5,307.5 Z"/></g>
<g><path style="opacity:1" fill="#fffafc" d="M 116.5,326.5 C 114.708,328.461 112.542,329.795 110,330.5C 108.289,330.561 106.956,329.894 106,328.5C 103.228,323.955 100.728,319.289 98.5,314.5C 98.7474,311.923 100.081,310.257 102.5,309.5C 103.873,309.343 105.207,309.51 106.5,310C 108.291,312.414 109.957,314.914 111.5,317.5C 116.745,312.754 122.412,308.588 128.5,305C 133.667,304.167 135.833,306.333 135,311.5C 128.645,316.364 122.478,321.364 116.5,326.5 Z"/></g>
<g><path style="opacity:0.95" fill="#cb5656" d="M 425.5,317.5 C 431.522,317.353 436.356,319.686 440,324.5C 440.669,327.345 439.503,329.012 436.5,329.5C 432.769,328.804 428.935,328.138 425,327.5C 424.341,324.112 424.508,320.779 425.5,317.5 Z"/></g>
<g><path style="opacity:0.961" fill="#d76f72" d="M 425.5,317.5 C 424.508,320.779 424.341,324.112 425,327.5C 428.935,328.138 432.769,328.804 436.5,329.5C 431.606,331.773 427.273,334.773 423.5,338.5C 422.833,338.5 422.5,338.833 422.5,339.5C 419.821,340.226 417.154,341.059 414.5,342C 412.266,343.75 409.932,345.25 407.5,346.5C 407.687,344.436 408.187,342.436 409,340.5C 411.881,334.738 414.714,329.071 417.5,323.5C 419.86,321.147 422.527,319.147 425.5,317.5 Z"/></g>
<g><path style="opacity:1" fill="#150d15" d="M 305.5,321.5 C 310.179,321.334 314.845,321.501 319.5,322C 320.86,323.938 320.527,325.604 318.5,327C 308.85,327.877 299.183,328.377 289.5,328.5C 289.178,326.278 289.845,324.444 291.5,323C 296.351,322.826 301.018,322.326 305.5,321.5 Z"/></g>
<g><path style="opacity:1" fill="#160d15" d="M 249.5,325.5 C 253.846,325.334 258.179,325.501 262.5,326C 263.833,327.667 263.833,329.333 262.5,331C 239.203,332.947 215.869,333.614 192.5,333C 191.594,331.301 191.261,329.467 191.5,327.5C 211.024,327.784 230.357,327.118 249.5,325.5 Z"/></g>
<g><path style="opacity:1" fill="#ca5957" d="M 417.5,323.5 C 414.714,329.071 411.881,334.738 409,340.5C 408.187,342.436 407.687,344.436 407.5,346.5C 407.167,347.167 406.833,347.833 406.5,348.5C 406.167,349.167 405.833,349.833 405.5,350.5C 399.499,357.561 398.832,365.227 403.5,373.5C 402.072,376.4 399.906,377.067 397,375.5C 396.517,374.552 396.351,373.552 396.5,372.5C 395.583,352.678 402.583,336.345 417.5,323.5 Z"/></g>
<g><path style="opacity:1" fill="#88fe71" d="M 423.5,338.5 C 427.897,338.425 432.23,338.925 436.5,340C 443.833,344.333 451.167,348.667 458.5,353C 462.362,353.758 466.028,353.258 469.5,351.5C 465.856,359.305 459.856,364.472 451.5,367C 440.14,370.976 429.14,370.309 418.5,365C 413.421,361.01 410.255,355.843 409,349.5C 408.329,348.748 407.496,348.414 406.5,348.5C 406.833,347.833 407.167,347.167 407.5,346.5C 409.932,345.25 412.266,343.75 414.5,342C 417.154,341.059 419.821,340.226 422.5,339.5C 423.167,339.5 423.5,339.167 423.5,338.5 Z"/></g>
<g><path style="opacity:0.995" fill="#57fe37" d="M 406.5,348.5 C 407.496,348.414 408.329,348.748 409,349.5C 410.255,355.843 413.421,361.01 418.5,365C 429.14,370.309 440.14,370.976 451.5,367C 459.856,364.472 465.856,359.305 469.5,351.5C 470.172,350.733 471.005,350.066 472,349.5C 473.149,352.393 473.649,355.393 473.5,358.5C 462.173,372.326 447.506,378.826 429.5,378C 416.685,373.019 408.685,363.852 405.5,350.5C 405.833,349.833 406.167,349.167 406.5,348.5 Z"/></g>
<g><path style="opacity:1" fill="#f21866" d="M 365.5,349.5 C 368.801,350.284 372.134,351.284 375.5,352.5C 373.5,354.5 371.5,356.5 369.5,358.5C 351.308,376.278 346.474,397.278 355,421.5C 366.867,447.356 387.034,458.523 415.5,455C 430.44,450.948 442.607,442.781 452,430.5C 459.81,419.213 466.31,407.213 471.5,394.5C 473.429,389.628 476.095,385.295 479.5,381.5C 489.373,409.499 486.873,436.499 472,462.5C 454.918,485.949 431.751,496.282 402.5,493.5C 385.21,494.229 368.543,491.396 352.5,485C 350.102,483.476 347.769,481.976 345.5,480.5C 338.447,474.78 332.447,468.113 327.5,460.5C 316.457,440.225 312.457,418.558 315.5,395.5C 316.285,393.626 316.952,391.626 317.5,389.5C 324.16,364.832 340.16,351.498 365.5,349.5 Z"/></g>
<g><path style="opacity:1" fill="#46de2e" d="M 405.5,350.5 C 408.685,363.852 416.685,373.019 429.5,378C 447.506,378.826 462.173,372.326 473.5,358.5C 474.62,362.017 474.62,365.684 473.5,369.5C 460.995,386.393 444.328,393.226 423.5,390C 414.235,387.562 407.569,382.062 403.5,373.5C 398.832,365.227 399.499,357.561 405.5,350.5 Z"/></g>
<g><path style="opacity:1" fill="#fe9fbb" d="M 375.5,352.5 C 380.683,354.681 385.35,357.681 389.5,361.5C 392.259,364.92 394.592,368.586 396.5,372.5C 396.351,373.552 396.517,374.552 397,375.5C 399.906,377.067 402.072,376.4 403.5,373.5C 407.569,382.062 414.235,387.562 423.5,390C 444.328,393.226 460.995,386.393 473.5,369.5C 476.558,372.948 478.558,376.948 479.5,381.5C 476.095,385.295 473.429,389.628 471.5,394.5C 464.766,402.739 457.433,410.572 449.5,418C 432.566,432.651 413.233,437.651 391.5,433C 378.599,428.432 370.099,419.599 366,406.5C 363.723,390.264 364.89,374.264 369.5,358.5C 371.5,356.5 373.5,354.5 375.5,352.5 Z"/></g>
<g><path style="opacity:1" fill="#fe779f" d="M 369.5,358.5 C 364.89,374.264 363.723,390.264 366,406.5C 370.099,419.599 378.599,428.432 391.5,433C 413.233,437.651 432.566,432.651 449.5,418C 457.433,410.572 464.766,402.739 471.5,394.5C 466.31,407.213 459.81,419.213 452,430.5C 442.607,442.781 430.44,450.948 415.5,455C 387.034,458.523 366.867,447.356 355,421.5C 346.474,397.278 351.308,376.278 369.5,358.5 Z"/></g>
<g><path style="opacity:1" fill="#fe3979" d="M 98.5,376.5 C 98.2933,384.463 99.6266,392.129 102.5,399.5C 100.01,400.108 98.6762,401.775 98.5,404.5C 101.263,409.773 104.263,414.939 107.5,420C 108.833,420.667 110.167,420.667 111.5,420C 113.996,418.334 116.329,416.5 118.5,414.5C 128.495,421.165 139.495,424.832 151.5,425.5C 153.074,431.596 151.074,435.762 145.5,438C 125.5,438.667 105.5,438.667 85.5,438C 85,437.5 84.5,437 84,436.5C 81.8053,417.454 82.1386,398.454 85,379.5C 85.8333,378.667 86.6667,377.833 87.5,377C 91.1516,376.501 94.8183,376.335 98.5,376.5 Z"/></g>
<g><path style="opacity:1" fill="#ff78a0" d="M 98.5,376.5 C 114.837,376.333 131.17,376.5 147.5,377C 149.121,379.166 149.955,381.666 150,384.5C 151.073,398.147 151.573,411.813 151.5,425.5C 139.495,424.832 128.495,421.165 118.5,414.5C 123.813,410.03 129.313,405.697 135,401.5C 136.167,396 134,393.833 128.5,395C 122.697,398.638 117.03,402.471 111.5,406.5C 109.724,404.462 108.057,402.296 106.5,400C 105.207,399.51 103.873,399.343 102.5,399.5C 99.6266,392.129 98.2933,384.463 98.5,376.5 Z"/></g>
<g><path style="opacity:1" fill="#170f16" d="M 317.5,389.5 C 316.952,391.626 316.285,393.626 315.5,395.5C 280.686,397.853 245.853,399.853 211,401.5C 205.167,401.333 199.333,401.167 193.5,401C 191.808,399.599 191.141,397.766 191.5,395.5C 206.17,395.667 220.837,395.5 235.5,395C 262.804,392.645 290.137,390.812 317.5,389.5 Z"/></g>
<g><path style="opacity:1" fill="#fffafb" d="M 118.5,414.5 C 116.329,416.5 113.996,418.334 111.5,420C 110.167,420.667 108.833,420.667 107.5,420C 104.263,414.939 101.263,409.773 98.5,404.5C 98.6762,401.775 100.01,400.108 102.5,399.5C 103.873,399.343 105.207,399.51 106.5,400C 108.057,402.296 109.724,404.462 111.5,406.5C 117.03,402.471 122.697,398.638 128.5,395C 134,393.833 136.167,396 135,401.5C 129.313,405.697 123.813,410.03 118.5,414.5 Z"/></g>
<g><path style="opacity:1" fill="#170f16" d="M 248.5,419.5 C 251.85,419.335 255.183,419.502 258.5,420C 259.86,421.938 259.527,423.604 257.5,425C 242.345,426.062 227.179,426.895 212,427.5C 205.454,427.517 198.954,427.017 192.5,426C 190.816,423.214 191.483,421.38 194.5,420.5C 212.665,421.715 230.665,421.381 248.5,419.5 Z"/></g>
</svg>
