<?xml version="1.0" encoding="UTF-8"?>
<!DOCTYPE svg PUBLIC "-//W3C//DTD SVG 1.1//EN" "http://www.w3.org/Graphics/SVG/1.1/DTD/svg11.dtd">
<svg xmlns="http://www.w3.org/2000/svg" version="1.1" width="512px" height="512px" style="shape-rendering:geometricPrecision; text-rendering:geometricPrecision; image-rendering:optimizeQuality; fill-rule:evenodd; clip-rule:evenodd" xmlns:xlink="http://www.w3.org/1999/xlink">
<g><path style="opacity:0.994" fill="#ff6e80" d="M 175.5,-0.5 C 181.833,-0.5 188.167,-0.5 194.5,-0.5C 208.475,3.29933 218.308,11.966 224,25.5C 224.896,29.7683 226.396,33.7683 228.5,37.5C 229.912,38.8064 231.579,39.6397 233.5,40C 242.575,40.0854 251.575,40.7521 260.5,42C 267.794,45.1243 271.794,50.6243 272.5,58.5C 272.5,70.5 272.5,82.5 272.5,94.5C 270.392,102.442 265.392,107.608 257.5,110C 208.833,110.667 160.167,110.667 111.5,110C 104.181,107.183 99.5144,102.017 97.5,94.5C 97.5,82.5 97.5,70.5 97.5,58.5C 98.5811,49.9075 103.248,44.0741 111.5,41C 120.908,40.918 130.241,40.2514 139.5,39C 143.185,35.3019 145.352,30.8019 146,25.5C 151.7,11.9568 161.533,3.29018 175.5,-0.5 Z"/></g>
<g><path style="opacity:1" fill="#fce09f" d="M 181.5,33.5 C 187.766,32.1171 191.433,34.4504 192.5,40.5C 192.181,45.4853 189.515,48.152 184.5,48.5C 178.75,47.0061 176.584,43.3394 178,37.5C 178.69,35.6498 179.856,34.3164 181.5,33.5 Z"/></g>
<g><path style="opacity:0.998" fill="#85a4e4" d="M 75.5,58.5 C 75.7633,70.5024 76.0966,82.5024 76.5,94.5C 65.3206,94.1721 54.3206,94.5054 43.5,95.5C 39.9802,96.1828 37.4802,98.1828 36,101.5C 35.0056,224.556 35.339,347.556 37,470.5C 38.5429,472.378 40.3762,473.878 42.5,475C 98.8323,475.5 155.166,475.667 211.5,475.5C 220.184,489.013 231.851,499.179 246.5,506C 252.232,508.008 257.898,509.842 263.5,511.5C 186.167,511.5 108.833,511.5 31.5,511.5C 15.1667,506.5 4.5,495.833 -0.5,479.5C -0.5,349.833 -0.5,220.167 -0.5,90.5C 4.50997,73.328 15.8433,62.828 33.5,59C 47.496,58.5001 61.496,58.3334 75.5,58.5 Z"/></g>
<g><path style="opacity:0.991" fill="#99b1e8" d="M 75.5,58.5 C 82.8333,58.5 90.1667,58.5 97.5,58.5C 97.5,70.5 97.5,82.5 97.5,94.5C 90.5,94.5 83.5,94.5 76.5,94.5C 76.0966,82.5024 75.7633,70.5024 75.5,58.5 Z"/></g>
<g><path style="opacity:0.99" fill="#99b2e8" d="M 272.5,58.5 C 293.836,58.3334 315.169,58.5 336.5,59C 354.562,62.7288 365.729,73.5621 370,91.5C 370.5,106.496 370.667,121.496 370.5,136.5C 358.198,134.458 346.198,135.458 334.5,139.5C 334.667,127.162 334.5,114.829 334,102.5C 332.833,98.6667 330.333,96.1667 326.5,95C 308.503,94.5001 290.503,94.3334 272.5,94.5C 272.5,82.5 272.5,70.5 272.5,58.5 Z"/></g>
<g><path style="opacity:1" fill="#fce29f" d="M 127.5,72.5 C 165.501,72.3333 203.501,72.5 241.5,73C 248.167,77.6667 248.167,82.3333 241.5,87C 203.5,87.6667 165.5,87.6667 127.5,87C 120.899,82.1709 120.899,77.3376 127.5,72.5 Z"/></g>
<g><path style="opacity:1" fill="#fef0ce" d="M 43.5,95.5 C 54.748,95.1793 65.9146,95.5126 77,96.5C 80.603,128.456 87.103,159.79 96.5,190.5C 94.1877,193.479 91.5211,196.146 88.5,198.5C 84.7209,192.441 79.3876,189.941 72.5,191C 69.6061,193.909 68.7728,197.409 70,201.5C 74.8333,206.333 79.6667,211.167 84.5,216C 87.1667,218 89.8333,218 92.5,216C 95.7025,212.629 99.0359,209.462 102.5,206.5C 108.956,221.173 115.622,235.84 122.5,250.5C 119.887,249.565 117.221,249.398 114.5,250C 105.986,258.681 97.3191,267.181 88.5,275.5C 85.646,272.812 82.646,270.312 79.5,268C 70.1819,267.432 67.3486,271.598 71,280.5C 75.5323,285.367 80.3656,289.867 85.5,294C 88.7829,294.743 91.7829,294.076 94.5,292C 105.03,281.804 115.197,271.304 125,260.5C 125.494,258.866 125.66,257.199 125.5,255.5C 139.18,279.523 154.847,302.189 172.5,323.5C 166.379,323.09 160.379,323.59 154.5,325C 149.956,330.782 150.956,335.282 157.5,338.5C 167.659,339.33 177.992,339.83 188.5,340C 195.036,346.369 201.369,352.869 207.5,359.5C 190.497,359.333 173.497,359.5 156.5,360C 149.689,365.33 150.023,370.33 157.5,375C 175.83,375.5 194.164,375.667 212.5,375.5C 212.365,382.862 212.698,390.196 213.5,397.5C 213.5,397.833 213.5,398.167 213.5,398.5C 208.579,398.043 205.079,400.043 203,404.5C 202.333,418.5 202.333,432.5 203,446.5C 204.129,456.687 206.963,466.354 211.5,475.5C 155.166,475.667 98.8323,475.5 42.5,475C 40.3762,473.878 38.5429,472.378 37,470.5C 35.339,347.556 35.0056,224.556 36,101.5C 37.4802,98.1828 39.9802,96.1828 43.5,95.5 Z"/></g>
<g><path style="opacity:1" fill="#fef6e5" d="M 43.5,95.5 C 54.3206,94.5054 65.3206,94.1721 76.5,94.5C 83.5,94.5 90.5,94.5 97.5,94.5C 99.5144,102.017 104.181,107.183 111.5,110C 160.167,110.667 208.833,110.667 257.5,110C 265.392,107.608 270.392,102.442 272.5,94.5C 290.503,94.3334 308.503,94.5001 326.5,95C 330.333,96.1667 332.833,98.6667 334,102.5C 334.5,114.829 334.667,127.162 334.5,139.5C 330.664,141.584 326.997,143.917 323.5,146.5C 318.324,150.515 313.324,154.681 308.5,159C 296.173,158.834 284.839,162.001 274.5,168.5C 235.499,168.333 196.499,168.5 157.5,169C 149.9,173.579 149.567,178.579 156.5,184C 191.498,184.5 226.498,184.667 261.5,184.5C 258.108,191.07 256.441,198.07 256.5,205.5C 222.832,205.333 189.165,205.5 155.5,206C 150.014,211.081 150.347,215.748 156.5,220C 189.832,220.5 223.165,220.667 256.5,220.5C 256.291,221.922 255.791,223.255 255,224.5C 246.801,230.193 240.634,237.526 236.5,246.5C 209.498,246.333 182.498,246.5 155.5,247C 150.257,251.588 150.257,256.255 155.5,261C 181.498,261.5 207.498,261.667 233.5,261.5C 233.439,268.803 234.772,275.803 237.5,282.5C 210.165,282.333 182.831,282.5 155.5,283C 150.257,287.588 150.257,292.255 155.5,297C 185.832,297.5 216.165,297.667 246.5,297.5C 247.638,300.304 247.805,303.304 247,306.5C 245.132,309.605 243.965,312.938 243.5,316.5C 241.5,319.167 239.167,321.5 236.5,323.5C 215.167,323.5 193.833,323.5 172.5,323.5C 154.847,302.189 139.18,279.523 125.5,255.5C 124.925,253.589 123.925,251.922 122.5,250.5C 115.622,235.84 108.956,221.173 102.5,206.5C 102.5,206.167 102.5,205.833 102.5,205.5C 110.132,198.369 117.632,191.036 125,183.5C 126.167,175.333 122.667,171.833 114.5,173C 108.63,178.702 102.964,184.535 97.5,190.5C 97.1667,190.5 96.8333,190.5 96.5,190.5C 87.103,159.79 80.603,128.456 77,96.5C 65.9146,95.5126 54.748,95.1793 43.5,95.5 Z"/></g>
<g><path style="opacity:0.996" fill="#8ce09f" d="M 370.5,136.5 C 375.686,137.756 380.686,139.59 385.5,142C 392.176,147.017 398.51,152.35 404.5,158C 442.197,160.017 459.53,179.683 456.5,217C 457,218.5 457.5,220 458,221.5C 462.613,226.113 467.279,230.779 472,235.5C 484.95,256.11 484.117,276.11 469.5,295.5C 462.067,289.607 454.067,284.44 445.5,280C 428.191,273.009 411.524,274.176 395.5,283.5C 382.784,291.216 372.784,301.549 365.5,314.5C 364.833,314.5 364.5,314.167 364.5,313.5C 364.5,306.833 364.5,300.167 364.5,293.5C 378.189,271.979 396.022,254.646 418,241.5C 419.833,232.667 416.333,229.167 407.5,231C 390.943,239.877 376.777,251.71 365,266.5C 364.333,258.833 364.333,251.167 365,243.5C 374.488,227.342 386.821,213.675 402,202.5C 404.323,192.493 400.489,188.993 390.5,192C 381.037,199.129 372.537,207.296 365,216.5C 364.667,204.167 364.333,191.833 364,179.5C 361.487,175.788 357.987,174.622 353.5,176C 351.667,176.5 350.5,177.667 350,179.5C 349.667,191.833 349.333,204.167 349,216.5C 341.588,207.253 333.088,199.253 323.5,192.5C 322.833,191.833 322.167,191.167 321.5,190.5C 322.055,176.575 323.388,162.575 325.5,148.5C 325.253,147.287 324.586,146.62 323.5,146.5C 326.997,143.917 330.664,141.584 334.5,139.5C 346.198,135.458 358.198,134.458 370.5,136.5 Z"/></g>
<g><path style="opacity:1" fill="#73d98c" d="M 323.5,146.5 C 324.586,146.62 325.253,147.287 325.5,148.5C 323.388,162.575 322.055,176.575 321.5,190.5C 312.498,189.994 309.332,193.994 312,202.5C 316.374,206.379 320.874,210.046 325.5,213.5C 325.5,213.833 325.5,214.167 325.5,214.5C 327.952,226.856 331.618,238.856 336.5,250.5C 336.376,251.107 336.043,251.44 335.5,251.5C 326.564,243.693 316.898,236.86 306.5,231C 297.667,229.167 294.167,232.667 296,241.5C 317.952,254.452 335.619,271.785 349,293.5C 349.808,297.027 349.641,300.36 348.5,303.5C 325.497,292.639 301.83,290.639 277.5,297.5C 264.965,301.765 253.632,308.099 243.5,316.5C 243.965,312.938 245.132,309.605 247,306.5C 247.805,303.304 247.638,300.304 246.5,297.5C 243.102,292.762 240.102,287.762 237.5,282.5C 234.772,275.803 233.439,268.803 233.5,261.5C 233.395,256.256 234.395,251.256 236.5,246.5C 240.634,237.526 246.801,230.193 255,224.5C 255.791,223.255 256.291,221.922 256.5,220.5C 257.293,215.673 257.293,210.673 256.5,205.5C 256.441,198.07 258.108,191.07 261.5,184.5C 265.046,178.612 269.379,173.278 274.5,168.5C 284.839,162.001 296.173,158.834 308.5,159C 313.324,154.681 318.324,150.515 323.5,146.5 Z"/></g>
<g><path style="opacity:1" fill="#949493" d="M 274.5,168.5 C 269.379,173.278 265.046,178.612 261.5,184.5C 226.498,184.667 191.498,184.5 156.5,184C 149.567,178.579 149.9,173.579 157.5,169C 196.499,168.5 235.499,168.333 274.5,168.5 Z"/></g>
<g><path style="opacity:1" fill="#919191" d="M 102.5,205.5 C 101.015,200.377 99.3481,195.377 97.5,190.5C 102.964,184.535 108.63,178.702 114.5,173C 122.667,171.833 126.167,175.333 125,183.5C 117.632,191.036 110.132,198.369 102.5,205.5 Z"/></g>
<g><path style="opacity:1" fill="#fdf7e5" d="M 364.5,293.5 C 353.941,282.731 345.608,270.397 339.5,256.5C 343.165,259.333 346.332,262.666 349,266.5C 349.667,258.833 349.667,251.167 349,243.5C 342.586,232.664 334.752,222.997 325.5,214.5C 325.5,214.167 325.5,213.833 325.5,213.5C 324.687,206.516 324.02,199.516 323.5,192.5C 333.088,199.253 341.588,207.253 349,216.5C 349.333,204.167 349.667,191.833 350,179.5C 350.5,177.667 351.667,176.5 353.5,176C 357.987,174.622 361.487,175.788 364,179.5C 364.333,191.833 364.667,204.167 365,216.5C 372.537,207.296 381.037,199.129 390.5,192C 400.489,188.993 404.323,192.493 402,202.5C 386.821,213.675 374.488,227.342 365,243.5C 364.333,251.167 364.333,258.833 365,266.5C 376.777,251.71 390.943,239.877 407.5,231C 416.333,229.167 419.833,232.667 418,241.5C 396.022,254.646 378.189,271.979 364.5,293.5 Z"/></g>
<g><path style="opacity:1" fill="#868686" d="M 96.5,190.5 C 96.8333,190.5 97.1667,190.5 97.5,190.5C 99.3481,195.377 101.015,200.377 102.5,205.5C 102.5,205.833 102.5,206.167 102.5,206.5C 99.0359,209.462 95.7025,212.629 92.5,216C 89.8333,218 87.1667,218 84.5,216C 79.6667,211.167 74.8333,206.333 70,201.5C 68.7728,197.409 69.6061,193.909 72.5,191C 79.3876,189.941 84.7209,192.441 88.5,198.5C 91.5211,196.146 94.1877,193.479 96.5,190.5 Z"/></g>
<g><path style="opacity:1" fill="#fbf0ce" d="M 321.5,190.5 C 322.167,191.167 322.833,191.833 323.5,192.5C 324.02,199.516 324.687,206.516 325.5,213.5C 320.874,210.046 316.374,206.379 312,202.5C 309.332,193.994 312.498,189.994 321.5,190.5 Z"/></g>
<g><path style="opacity:1" fill="#919191" d="M 256.5,205.5 C 257.293,210.673 257.293,215.673 256.5,220.5C 223.165,220.667 189.832,220.5 156.5,220C 150.347,215.748 150.014,211.081 155.5,206C 189.165,205.5 222.832,205.333 256.5,205.5 Z"/></g>
<g><path style="opacity:1" fill="#8ee0a0" d="M 325.5,214.5 C 334.752,222.997 342.586,232.664 349,243.5C 349.667,251.167 349.667,258.833 349,266.5C 346.332,262.666 343.165,259.333 339.5,256.5C 338.167,254.833 336.833,253.167 335.5,251.5C 336.043,251.44 336.376,251.107 336.5,250.5C 331.618,238.856 327.952,226.856 325.5,214.5 Z"/></g>
<g><path style="opacity:1" fill="#fdf0ce" d="M 335.5,251.5 C 336.833,253.167 338.167,254.833 339.5,256.5C 345.608,270.397 353.941,282.731 364.5,293.5C 364.5,300.167 364.5,306.833 364.5,313.5C 359.126,310.151 353.792,306.817 348.5,303.5C 349.641,300.36 349.808,297.027 349,293.5C 335.619,271.785 317.952,254.452 296,241.5C 294.167,232.667 297.667,229.167 306.5,231C 316.898,236.86 326.564,243.693 335.5,251.5 Z"/></g>
<g><path style="opacity:1" fill="#919191" d="M 236.5,246.5 C 234.395,251.256 233.395,256.256 233.5,261.5C 207.498,261.667 181.498,261.5 155.5,261C 150.257,256.255 150.257,251.588 155.5,247C 182.498,246.5 209.498,246.333 236.5,246.5 Z"/></g>
<g><path style="opacity:1" fill="#878787" d="M 122.5,250.5 C 123.925,251.922 124.925,253.589 125.5,255.5C 125.66,257.199 125.494,258.866 125,260.5C 115.197,271.304 105.03,281.804 94.5,292C 91.7829,294.076 88.7829,294.743 85.5,294C 80.3656,289.867 75.5323,285.367 71,280.5C 67.3486,271.598 70.1819,267.432 79.5,268C 82.646,270.312 85.646,272.812 88.5,275.5C 97.3191,267.181 105.986,258.681 114.5,250C 117.221,249.398 119.887,249.565 122.5,250.5 Z"/></g>
<g><path style="opacity:0.995" fill="#fef7e5" d="M 469.5,295.5 C 494.71,324.81 505.044,358.81 500.5,397.5C 489.346,398.495 478.012,398.828 466.5,398.5C 469.992,376.985 462.325,360.818 443.5,350C 432.739,345.279 421.739,344.446 410.5,347.5C 399.219,327.705 394.219,306.371 395.5,283.5C 411.524,274.176 428.191,273.009 445.5,280C 454.067,284.44 462.067,289.607 469.5,295.5 Z"/></g>
<g><path style="opacity:1" fill="#919191" d="M 237.5,282.5 C 240.102,287.762 243.102,292.762 246.5,297.5C 216.165,297.667 185.832,297.5 155.5,297C 150.257,292.255 150.257,287.588 155.5,283C 182.831,282.5 210.165,282.333 237.5,282.5 Z"/></g>
<g><path style="opacity:1" fill="#fef0ce" d="M 395.5,283.5 C 394.219,306.371 399.219,327.705 410.5,347.5C 409.833,347.5 409.5,347.833 409.5,348.5C 403.374,349.725 398.374,352.725 394.5,357.5C 391.24,349.646 387.407,341.98 383,334.5C 377.703,327.369 371.87,320.703 365.5,314.5C 372.784,301.549 382.784,291.216 395.5,283.5 Z"/></g>
<g><path style="opacity:1" fill="#fe6e80" d="M 348.5,303.5 C 353.792,306.817 359.126,310.151 364.5,313.5C 364.5,314.167 364.833,314.5 365.5,314.5C 371.87,320.703 377.703,327.369 383,334.5C 387.407,341.98 391.24,349.646 394.5,357.5C 398.29,370.64 399.29,383.973 397.5,397.5C 387.167,397.5 376.833,397.5 366.5,397.5C 370.22,364.758 357.22,341.592 327.5,328C 316.057,324.69 304.39,323.69 292.5,325C 288.192,325.946 284.192,327.446 280.5,329.5C 280.167,329.5 279.833,329.5 279.5,329.5C 278.927,318.683 278.26,308.017 277.5,297.5C 301.83,290.639 325.497,292.639 348.5,303.5 Z"/></g>
<g><path style="opacity:1" fill="#fc5c6f" d="M 277.5,297.5 C 278.26,308.017 278.927,318.683 279.5,329.5C 252.526,344.111 240.86,366.777 244.5,397.5C 234.167,397.5 223.833,397.5 213.5,397.5C 212.698,390.196 212.365,382.862 212.5,375.5C 213.495,370.186 214.829,364.852 216.5,359.5C 218.676,352.147 221.676,345.147 225.5,338.5C 228.749,333.243 232.415,328.243 236.5,323.5C 239.167,321.5 241.5,319.167 243.5,316.5C 253.632,308.099 264.965,301.765 277.5,297.5 Z"/></g>
<g><path style="opacity:1" fill="#858586" d="M 172.5,323.5 C 177.111,328.448 181.777,333.448 186.5,338.5C 176.833,338.5 167.167,338.5 157.5,338.5C 150.956,335.282 149.956,330.782 154.5,325C 160.379,323.59 166.379,323.09 172.5,323.5 Z"/></g>
<g><path style="opacity:1" fill="#919090" d="M 172.5,323.5 C 193.833,323.5 215.167,323.5 236.5,323.5C 232.415,328.243 228.749,333.243 225.5,338.5C 212.5,338.5 199.5,338.5 186.5,338.5C 181.777,333.448 177.111,328.448 172.5,323.5 Z"/></g>
<g><path style="opacity:1" fill="#fda1ac" d="M 397.5,397.5 C 397.5,397.833 397.5,398.167 397.5,398.5C 378.5,398.5 359.5,398.5 340.5,398.5C 298.167,398.5 255.833,398.5 213.5,398.5C 213.5,398.167 213.5,397.833 213.5,397.5C 223.833,397.5 234.167,397.5 244.5,397.5C 274.169,397.667 303.835,397.5 333.5,397C 304.192,383.51 286.525,361.01 280.5,329.5C 284.192,327.446 288.192,325.946 292.5,325C 304.39,323.69 316.057,324.69 327.5,328C 357.22,341.592 370.22,364.758 366.5,397.5C 376.833,397.5 387.167,397.5 397.5,397.5 Z"/></g>
<g><path style="opacity:1" fill="#878687" d="M 115.5,326.5 C 124.35,326.864 127.184,331.197 124,339.5C 113.833,349.667 103.667,359.833 93.5,370C 90.1667,372 86.8333,372 83.5,370C 79.3333,365.833 75.1667,361.667 71,357.5C 67.606,348.912 70.4394,344.746 79.5,345C 82.646,347.312 85.646,349.812 88.5,352.5C 97.5472,343.784 106.547,335.118 115.5,326.5 Z"/></g>
<g><path style="opacity:1" fill="#ff8a97" d="M 279.5,329.5 C 279.833,329.5 280.167,329.5 280.5,329.5C 286.525,361.01 304.192,383.51 333.5,397C 303.835,397.5 274.169,397.667 244.5,397.5C 240.86,366.777 252.526,344.111 279.5,329.5 Z"/></g>
<g><path style="opacity:1" fill="#f8f1e0" d="M 157.5,338.5 C 167.167,338.5 176.833,338.5 186.5,338.5C 199.5,338.5 212.5,338.5 225.5,338.5C 221.676,345.147 218.676,352.147 216.5,359.5C 213.5,359.5 210.5,359.5 207.5,359.5C 201.369,352.869 195.036,346.369 188.5,340C 177.992,339.83 167.659,339.33 157.5,338.5 Z"/></g>
<g><path style="opacity:1" fill="#fbe2a0" d="M 466.5,398.5 C 443.5,398.5 420.5,398.5 397.5,398.5C 397.5,398.167 397.5,397.833 397.5,397.5C 419.503,397.667 441.503,397.5 463.5,397C 441.5,385.16 423.5,368.994 409.5,348.5C 409.5,347.833 409.833,347.5 410.5,347.5C 421.739,344.446 432.739,345.279 443.5,350C 462.325,360.818 469.992,376.985 466.5,398.5 Z"/></g>
<g><path style="opacity:1" fill="#fff6e5" d="M 301.5,347.5 C 310.649,347.156 314.149,351.489 312,360.5C 307.748,366.653 303.081,366.986 298,361.5C 297.333,358.167 297.333,354.833 298,351.5C 298.69,349.65 299.856,348.316 301.5,347.5 Z"/></g>
<g><path style="opacity:1" fill="#ffce71" d="M 409.5,348.5 C 423.5,368.994 441.5,385.16 463.5,397C 441.503,397.5 419.503,397.667 397.5,397.5C 399.29,383.973 398.29,370.64 394.5,357.5C 398.374,352.725 403.374,349.725 409.5,348.5 Z"/></g>
<g><path style="opacity:1" fill="#ffedcc" d="M 277.5,358.5 C 282.945,358.425 287.112,360.758 290,365.5C 290.955,370.423 289.121,373.923 284.5,376C 276.139,375.973 272.305,371.806 273,363.5C 274.193,361.503 275.693,359.836 277.5,358.5 Z"/></g>
<g><path style="opacity:1" fill="#fff4e3" d="M 328.5,358.5 C 338.308,359.795 340.641,364.628 335.5,373C 328.19,378.712 323.19,377.212 320.5,368.5C 320.437,366.519 321.104,364.852 322.5,363.5C 324.544,361.781 326.544,360.114 328.5,358.5 Z"/></g>
<g><path style="opacity:1" fill="#898888" d="M 207.5,359.5 C 210.5,359.5 213.5,359.5 216.5,359.5C 214.829,364.852 213.495,370.186 212.5,375.5C 194.164,375.667 175.83,375.5 157.5,375C 150.023,370.33 149.689,365.33 156.5,360C 173.497,359.5 190.497,359.333 207.5,359.5 Z"/></g>
<g><path style="opacity:0.998" fill="#b4e8f0" d="M 500.5,397.5 C 505.243,397.702 508.909,399.702 511.5,403.5C 511.5,419.5 511.5,435.5 511.5,451.5C 503.833,483.833 483.833,503.833 451.5,511.5C 442.167,511.5 432.833,511.5 423.5,511.5C 402.577,505.208 384.243,494.541 368.5,479.5C 372.058,477.446 375.225,474.78 378,471.5C 381.325,462.319 378.158,458.485 368.5,460C 366.545,460.953 364.878,462.287 363.5,464C 361.655,465.128 359.655,465.628 357.5,465.5C 345.731,444.76 340.065,422.426 340.5,398.5C 359.5,398.5 378.5,398.5 397.5,398.5C 420.5,398.5 443.5,398.5 466.5,398.5C 478.012,398.828 489.346,398.495 500.5,397.5 Z"/></g>
<g><path style="opacity:1" fill="#9ae0eb" d="M 213.5,398.5 C 255.833,398.5 298.167,398.5 340.5,398.5C 340.065,422.426 345.731,444.76 357.5,465.5C 352.639,465.57 348.639,463.737 345.5,460C 336.667,458.167 333.167,461.667 335,470.5C 344.149,480.898 355.315,483.898 368.5,479.5C 384.243,494.541 402.577,505.208 423.5,511.5C 370.167,511.5 316.833,511.5 263.5,511.5C 257.898,509.842 252.232,508.008 246.5,506C 231.851,499.179 220.184,489.013 211.5,475.5C 206.963,466.354 204.129,456.687 203,446.5C 202.333,432.5 202.333,418.5 203,404.5C 205.079,400.043 208.579,398.043 213.5,398.5 Z"/></g>
<g><path style="opacity:1" fill="#676869" d="M 287.5,428.5 C 305.332,426.843 314.499,434.843 315,452.5C 312.087,457.689 307.92,458.856 302.5,456C 301.086,452.945 299.919,449.778 299,446.5C 295.333,442.5 291.667,442.5 288,446.5C 288.058,455.113 283.891,458.613 275.5,457C 272.833,455 271.5,452.333 271.5,449C 272.917,438.952 278.25,432.119 287.5,428.5 Z"/></g>
<g><path style="opacity:1" fill="#676869" d="M 414.5,428.5 C 432.093,427.173 441.26,435.173 442,452.5C 439.565,457.224 435.731,458.724 430.5,457C 427.449,453.784 425.616,449.951 425,445.5C 421.393,442.731 418.06,443.064 415,446.5C 414.081,449.778 412.914,452.945 411.5,456C 403.612,459.607 399.278,457.107 398.5,448.5C 399.805,438.536 405.138,431.869 414.5,428.5 Z"/></g>
<g><path style="opacity:1" fill="#676869" d="M 357.5,465.5 C 359.655,465.628 361.655,465.128 363.5,464C 364.878,462.287 366.545,460.953 368.5,460C 378.158,458.485 381.325,462.319 378,471.5C 375.225,474.78 372.058,477.446 368.5,479.5C 355.315,483.898 344.149,480.898 335,470.5C 333.167,461.667 336.667,458.167 345.5,460C 348.639,463.737 352.639,465.57 357.5,465.5 Z"/></g>
</svg>
