<?xml version="1.0" encoding="UTF-8"?>
<!DOCTYPE svg PUBLIC "-//W3C//DTD SVG 1.1//EN" "http://www.w3.org/Graphics/SVG/1.1/DTD/svg11.dtd">
<svg xmlns="http://www.w3.org/2000/svg" version="1.1" width="512px" height="512px" style="shape-rendering:geometricPrecision; text-rendering:geometricPrecision; image-rendering:optimizeQuality; fill-rule:evenodd; clip-rule:evenodd" xmlns:xlink="http://www.w3.org/1999/xlink">
<g><path style="opacity:1" fill="#554e56" d="M 247.5,-0.5 C 252.833,-0.5 258.167,-0.5 263.5,-0.5C 274.779,3.44553 282.446,11.1122 286.5,22.5C 288.21,31.3263 286.876,39.6596 282.5,47.5C 274.767,44.5898 266.767,42.9232 258.5,42.5C 263.161,24.5133 257.494,11.18 241.5,2.5C 243.5,1.5 245.5,0.5 247.5,-0.5 Z"/></g>
<g><path style="opacity:0.995" fill="#c8eefd" d="M 224.5,22.5 C 223.499,31.3034 224.832,39.6367 228.5,47.5C 201.85,64.8261 190.85,89.4928 195.5,121.5C 187.993,126.547 185.493,133.547 188,142.5C 190.165,149.167 194.665,153.167 201.5,154.5C 205.021,155.166 208.687,155.833 212.5,156.5C 216.938,166.065 223.271,174.065 231.5,180.5C 212.335,186.216 193.335,192.716 174.5,200C 166.395,207.421 164.395,216.254 168.5,226.5C 166.097,234.046 164.097,241.712 162.5,249.5C 161.208,254.627 159.542,259.627 157.5,264.5C 150.833,264.5 144.167,264.5 137.5,264.5C 149.69,247.957 154.69,229.624 152.5,209.5C 148.906,208.574 145.24,208.241 141.5,208.5C 147.142,197.745 151.308,186.411 154,174.5C 155.498,164.545 155.831,154.545 155,144.5C 154.531,139.791 153.365,135.291 151.5,131C 145.497,131.335 140.497,133.835 136.5,138.5C 132.878,140.787 129.545,143.453 126.5,146.5C 124.055,130.943 117.388,117.61 106.5,106.5C 102.402,109.265 99.4022,112.932 97.5,117.5C 92.0653,126.467 88.3987,136.134 86.5,146.5C 80.2808,140.784 73.6141,135.617 66.5,131C 61.3361,129.842 59.0027,132.008 59.5,137.5C 55.9022,155.868 57.4022,173.868 64,191.5C 66.5121,197.188 69.0121,202.855 71.5,208.5C 68.1501,208.335 64.8168,208.502 61.5,209C 59.0815,210.686 58.0815,213.019 58.5,216C 59.8156,233.8 65.4822,249.966 75.5,264.5C 53.8333,264.5 32.1667,264.5 10.5,264.5C 13.8011,170.683 55.4678,99.8499 135.5,52C 163.44,36.8533 193.107,27.0199 224.5,22.5 Z"/></g>
<g><path style="opacity:0.994" fill="#c7eefd" d="M 286.5,22.5 C 379.176,37.6979 444.676,88.0312 483,173.5C 487.345,185.033 491.178,196.7 494.5,208.5C 486.5,208.5 478.5,208.5 470.5,208.5C 450.167,208.5 429.833,208.5 409.5,208.5C 409.5,202.167 409.5,195.833 409.5,189.5C 413.007,190.006 416.174,189.34 419,187.5C 419.667,181.5 419.667,175.5 419,169.5C 418.5,169 418,168.5 417.5,168C 413.848,167.501 410.182,167.335 406.5,167.5C 407.504,166.317 408.338,164.984 409,163.5C 409.877,156.751 409.544,150.084 408,143.5C 406.223,141.21 404.056,139.543 401.5,138.5C 404.113,135.71 406.613,132.71 409,129.5C 409.92,122.724 409.586,116.057 408,109.5C 406.127,107.291 403.96,105.458 401.5,104C 393.841,103.5 386.174,103.334 378.5,103.5C 357.5,103.5 336.5,103.5 315.5,103.5C 315.437,83.1429 307.437,66.6429 291.5,54C 288.079,52.3015 285.079,50.1348 282.5,47.5C 286.876,39.6596 288.21,31.3263 286.5,22.5 Z"/></g>
<g><path style="opacity:1" fill="#7a6d79" d="M 288.5,93.5 C 266.164,93.3334 243.831,93.5 221.5,94C 210.396,98.2914 205.063,106.458 205.5,118.5C 203.901,118.232 202.568,118.566 201.5,119.5C 199.297,119.604 197.297,120.27 195.5,121.5C 190.85,89.4928 201.85,64.8261 228.5,47.5C 229.117,47.6107 229.617,47.944 230,48.5C 238.606,43.9836 247.772,42.1503 257.5,43C 255.15,45.3728 254.983,47.8728 257,50.5C 271.259,58.0909 281.259,69.4243 287,84.5C 287.953,87.4318 288.453,90.4318 288.5,93.5 Z"/></g>
<g><path style="opacity:1" fill="#685e68" d="M 241.5,2.5 C 257.494,11.18 263.161,24.5133 258.5,42.5C 266.767,42.9232 274.767,44.5898 282.5,47.5C 285.079,50.1348 288.079,52.3015 291.5,54C 307.437,66.6429 315.437,83.1429 315.5,103.5C 315.5,109.5 315.5,115.5 315.5,121.5C 312.37,119.977 309.037,119.311 305.5,119.5C 306.26,109.524 302.594,101.69 294.5,96C 292.975,94.9914 291.308,94.4914 289.5,94.5C 289.5,93.8333 289.167,93.5 288.5,93.5C 288.453,90.4318 287.953,87.4318 287,84.5C 281.259,69.4243 271.259,58.0909 257,50.5C 254.983,47.8728 255.15,45.3728 257.5,43C 247.772,42.1503 238.606,43.9836 230,48.5C 229.617,47.944 229.117,47.6107 228.5,47.5C 224.832,39.6367 223.499,31.3034 224.5,22.5C 227.31,13.3601 232.977,6.69345 241.5,2.5 Z"/></g>
<g><path style="opacity:1" fill="#fecdbe" d="M 288.5,93.5 C 289.167,93.5 289.5,93.8333 289.5,94.5C 288.508,101.648 288.175,108.981 288.5,116.5C 286.265,119.017 284.765,122.017 284,125.5C 281.683,128.097 278.85,128.93 275.5,128C 272.88,124.475 270.547,120.808 268.5,117C 263.992,116.004 261.659,117.837 261.5,122.5C 264.795,136.312 273.128,140.979 286.5,136.5C 285.331,155.495 277.165,171.162 262,183.5C 260.798,185.677 260.298,188.011 260.5,190.5C 260.167,190.5 259.833,190.5 259.5,190.5C 256.927,191.555 254.261,191.722 251.5,191C 246.02,188.759 240.687,186.259 235.5,183.5C 234.205,182.512 232.872,181.512 231.5,180.5C 223.271,174.065 216.938,166.065 212.5,156.5C 208.687,155.833 205.021,155.166 201.5,154.5C 204.85,154.665 208.183,154.498 211.5,154C 206.865,142.987 204.865,131.487 205.5,119.5C 204.167,119.5 202.833,119.5 201.5,119.5C 202.568,118.566 203.901,118.232 205.5,118.5C 205.063,106.458 210.396,98.2914 221.5,94C 243.831,93.5 266.164,93.3334 288.5,93.5 Z"/></g>
<g><path style="opacity:1" fill="#feb09e" d="M 289.5,94.5 C 291.308,94.4914 292.975,94.9914 294.5,96C 302.594,101.69 306.26,109.524 305.5,119.5C 305.958,131.465 303.958,142.965 299.5,154C 302.817,154.498 306.15,154.665 309.5,154.5C 306.359,155.321 303.025,155.821 299.5,156C 297.03,159.778 294.697,163.611 292.5,167.5C 288.5,172.167 284.167,176.5 279.5,180.5C 278.128,181.512 276.795,182.512 275.5,183.5C 270.896,186.635 265.896,188.968 260.5,190.5C 260.298,188.011 260.798,185.677 262,183.5C 277.165,171.162 285.331,155.495 286.5,136.5C 294.209,132.034 296.542,125.7 293.5,117.5C 291.929,116.691 290.262,116.357 288.5,116.5C 288.175,108.981 288.508,101.648 289.5,94.5 Z"/></g>
<g><path style="opacity:1" fill="#f2fafe" d="M 315.5,103.5 C 336.5,103.5 357.5,103.5 378.5,103.5C 378.5,114.833 378.5,126.167 378.5,137.5C 360.5,137.5 342.5,137.5 324.5,137.5C 324.768,135.901 324.434,134.568 323.5,133.5C 322.321,128.467 319.655,124.467 315.5,121.5C 315.5,115.5 315.5,109.5 315.5,103.5 Z"/></g>
<g><path style="opacity:1" fill="#dff6fd" d="M 378.5,103.5 C 386.174,103.334 393.841,103.5 401.5,104C 403.96,105.458 406.127,107.291 408,109.5C 409.586,116.057 409.92,122.724 409,129.5C 406.613,132.71 404.113,135.71 401.5,138.5C 393.92,137.534 386.253,137.201 378.5,137.5C 378.5,126.167 378.5,114.833 378.5,103.5 Z"/></g>
<g><path style="opacity:1" fill="#79aa21" d="M 126.5,146.5 C 121.677,152.147 117.343,158.147 113.5,164.5C 111.849,148.467 107.349,133.134 100,118.5C 99.3292,117.748 98.4959,117.414 97.5,117.5C 99.4022,112.932 102.402,109.265 106.5,106.5C 117.388,117.61 124.055,130.943 126.5,146.5 Z"/></g>
<g><path style="opacity:1" fill="#81b824" d="M 97.5,117.5 C 98.4959,117.414 99.3292,117.748 100,118.5C 107.349,133.134 111.849,148.467 113.5,164.5C 111.39,169.059 109.057,173.392 106.5,177.5C 101.474,166.134 94.8077,155.801 86.5,146.5C 88.3987,136.134 92.0653,126.467 97.5,117.5 Z"/></g>
<g><path style="opacity:1" fill="#f89681" d="M 218.5,116.5 C 221.325,116.081 223.491,117.081 225,119.5C 226.356,128.58 230.689,130.58 238,125.5C 238.869,122.67 240.036,120.003 241.5,117.5C 245.928,115.748 248.594,117.248 249.5,122C 246.18,136.659 237.514,141.326 223.5,136C 218.642,132.783 215.976,128.283 215.5,122.5C 215.467,119.898 216.467,117.898 218.5,116.5 Z"/></g>
<g><path style="opacity:1" fill="#f89681" d="M 288.5,116.5 C 290.262,116.357 291.929,116.691 293.5,117.5C 296.542,125.7 294.209,132.034 286.5,136.5C 273.128,140.979 264.795,136.312 261.5,122.5C 261.659,117.837 263.992,116.004 268.5,117C 270.547,120.808 272.88,124.475 275.5,128C 278.85,128.93 281.683,128.097 284,125.5C 284.765,122.017 286.265,119.017 288.5,116.5 Z"/></g>
<g><path style="opacity:1" fill="#feb09e" d="M 201.5,119.5 C 202.833,119.5 204.167,119.5 205.5,119.5C 204.865,131.487 206.865,142.987 211.5,154C 208.183,154.498 204.85,154.665 201.5,154.5C 194.665,153.167 190.165,149.167 188,142.5C 185.493,133.547 187.993,126.547 195.5,121.5C 197.297,120.27 199.297,119.604 201.5,119.5 Z"/></g>
<g><path style="opacity:1" fill="#f79581" d="M 305.5,119.5 C 309.037,119.311 312.37,119.977 315.5,121.5C 319.655,124.467 322.321,128.467 323.5,133.5C 324.547,144.427 319.88,151.427 309.5,154.5C 306.15,154.665 302.817,154.498 299.5,154C 303.958,142.965 305.958,131.465 305.5,119.5 Z"/></g>
<g><path style="opacity:1" fill="#97d72a" d="M 86.5,146.5 C 94.8077,155.801 101.474,166.134 106.5,177.5C 103.02,187.564 100.687,197.897 99.5,208.5C 98.8333,208.5 98.1667,208.5 97.5,208.5C 94.4914,179.473 81.8248,155.806 59.5,137.5C 59.0027,132.008 61.3361,129.842 66.5,131C 73.6141,135.617 80.2808,140.784 86.5,146.5 Z"/></g>
<g><path style="opacity:1" fill="#81b825" d="M 141.5,208.5 C 139.833,208.5 138.167,208.5 136.5,208.5C 132.5,208.5 128.5,208.5 124.5,208.5C 137.831,186.567 141.831,163.234 136.5,138.5C 140.497,133.835 145.497,131.335 151.5,131C 153.365,135.291 154.531,139.791 155,144.5C 155.831,154.545 155.498,164.545 154,174.5C 151.308,186.411 147.142,197.745 141.5,208.5 Z"/></g>
<g><path style="opacity:1" fill="#f89681" d="M 250.5,135.5 C 254.007,134.994 257.174,135.66 260,137.5C 261.091,142.098 259.257,144.931 254.5,146C 260.547,147.653 261.88,150.986 258.5,156C 248.735,156.902 244.235,152.402 245,142.5C 246.666,140.004 248.5,137.671 250.5,135.5 Z"/></g>
<g><path style="opacity:1" fill="#a2e52f" d="M 59.5,137.5 C 81.8248,155.806 94.4914,179.473 97.5,208.5C 88.8333,208.5 80.1667,208.5 71.5,208.5C 69.0121,202.855 66.5121,197.188 64,191.5C 57.4022,173.868 55.9022,155.868 59.5,137.5 Z"/></g>
<g><path style="opacity:1" fill="#fdfcfc" d="M 323.5,133.5 C 324.434,134.568 324.768,135.901 324.5,137.5C 342.5,137.5 360.5,137.5 378.5,137.5C 386.253,137.201 393.92,137.534 401.5,138.5C 404.056,139.543 406.223,141.21 408,143.5C 409.544,150.084 409.877,156.751 409,163.5C 408.338,164.984 407.504,166.317 406.5,167.5C 397.167,167.5 387.833,167.5 378.5,167.5C 349.833,167.5 321.167,167.5 292.5,167.5C 294.697,163.611 297.03,159.778 299.5,156C 303.025,155.821 306.359,155.321 309.5,154.5C 319.88,151.427 324.547,144.427 323.5,133.5 Z"/></g>
<g><path style="opacity:1" fill="#8bc627" d="M 136.5,138.5 C 141.831,163.234 137.831,186.567 124.5,208.5C 116.167,208.5 107.833,208.5 99.5,208.5C 100.687,197.897 103.02,187.564 106.5,177.5C 109.057,173.392 111.39,169.059 113.5,164.5C 117.343,158.147 121.677,152.147 126.5,146.5C 129.545,143.453 132.878,140.787 136.5,138.5 Z"/></g>
<g><path style="opacity:1" fill="#f89782" d="M 242.5,163.5 C 251.173,163.334 259.84,163.5 268.5,164C 271.539,167.805 270.872,170.805 266.5,173C 258.833,173.667 251.167,173.667 243.5,173C 239.956,170.127 239.623,166.96 242.5,163.5 Z"/></g>
<g><path style="opacity:1" fill="#fed2a4" d="M 292.5,167.5 C 321.167,167.5 349.833,167.5 378.5,167.5C 378.5,174.833 378.5,182.167 378.5,189.5C 355.5,189.5 332.5,189.5 309.5,189.5C 299.381,186.905 289.381,183.905 279.5,180.5C 284.167,176.5 288.5,172.167 292.5,167.5 Z"/></g>
<g><path style="opacity:1" fill="#febd86" d="M 378.5,167.5 C 387.833,167.5 397.167,167.5 406.5,167.5C 410.182,167.335 413.848,167.501 417.5,168C 418,168.5 418.5,169 419,169.5C 419.667,175.5 419.667,181.5 419,187.5C 416.174,189.34 413.007,190.006 409.5,189.5C 399.167,189.5 388.833,189.5 378.5,189.5C 378.5,182.167 378.5,174.833 378.5,167.5 Z"/></g>
<g><path style="opacity:1" fill="#fefefe" d="M 231.5,180.5 C 232.872,181.512 234.205,182.512 235.5,183.5C 235.099,191.585 235.599,199.585 237,207.5C 239.159,213.651 243.325,217.651 249.5,219.5C 266.84,221.833 275.507,214.167 275.5,196.5C 285.326,199.164 294.992,202.331 304.5,206C 311.969,211.768 314.802,219.268 313,228.5C 303.525,257.092 294.358,285.759 285.5,314.5C 256.833,314.5 228.167,314.5 199.5,314.5C 198.542,314.047 197.708,313.381 197,312.5C 194.23,304.021 191.397,295.688 188.5,287.5C 182.603,266.811 175.937,246.478 168.5,226.5C 164.395,216.254 166.395,207.421 174.5,200C 193.335,192.716 212.335,186.216 231.5,180.5 Z"/></g>
<g><path style="opacity:1" fill="#faf6f6" d="M 279.5,180.5 C 289.381,183.905 299.381,186.905 309.5,189.5C 316.56,192.465 323.894,194.965 331.5,197C 344.142,204.094 347.476,214.261 341.5,227.5C 338.833,236.501 336.166,245.501 333.5,254.5C 329.463,265.614 325.796,276.948 322.5,288.5C 319.603,296.688 316.77,305.021 314,313.5C 313.329,314.252 312.496,314.586 311.5,314.5C 302.833,314.5 294.167,314.5 285.5,314.5C 294.358,285.759 303.525,257.092 313,228.5C 314.802,219.268 311.969,211.768 304.5,206C 294.992,202.331 285.326,199.164 275.5,196.5C 275.5,192.167 275.5,187.833 275.5,183.5C 276.795,182.512 278.128,181.512 279.5,180.5 Z"/></g>
<g><path style="opacity:1" fill="#fea78f" d="M 235.5,183.5 C 240.687,186.259 246.02,188.759 251.5,191C 254.261,191.722 256.927,191.555 259.5,190.5C 259.861,196.593 259.361,202.593 258,208.5C 255.63,212.681 252.797,216.348 249.5,219.5C 243.325,217.651 239.159,213.651 237,207.5C 235.599,199.585 235.099,191.585 235.5,183.5 Z"/></g>
<g><path style="opacity:1" fill="#f89681" d="M 275.5,183.5 C 275.5,187.833 275.5,192.167 275.5,196.5C 275.507,214.167 266.84,221.833 249.5,219.5C 252.797,216.348 255.63,212.681 258,208.5C 259.361,202.593 259.861,196.593 259.5,190.5C 259.833,190.5 260.167,190.5 260.5,190.5C 265.896,188.968 270.896,186.635 275.5,183.5 Z"/></g>
<g><path style="opacity:1" fill="#f6a96c" d="M 309.5,189.5 C 332.5,189.5 355.5,189.5 378.5,189.5C 388.833,189.5 399.167,189.5 409.5,189.5C 409.5,195.833 409.5,202.167 409.5,208.5C 406.635,208.055 404.135,208.722 402,210.5C 401.333,216.5 401.333,222.5 402,228.5C 402.5,229 403,229.5 403.5,230C 425.831,230.5 448.164,230.667 470.5,230.5C 470.5,241.833 470.5,253.167 470.5,264.5C 431.5,264.5 392.5,264.5 353.5,264.5C 350.019,252.913 346.685,241.246 343.5,229.5C 343.253,228.287 342.586,227.62 341.5,227.5C 347.476,214.261 344.142,204.094 331.5,197C 323.894,194.965 316.56,192.465 309.5,189.5 Z"/></g>
<g><path style="opacity:1" fill="#fefefe" d="M 71.5,208.5 C 80.1667,208.5 88.8333,208.5 97.5,208.5C 98.1667,208.5 98.8333,208.5 99.5,208.5C 107.833,208.5 116.167,208.5 124.5,208.5C 128.5,208.5 132.5,208.5 136.5,208.5C 135.793,229.893 128.46,248.56 114.5,264.5C 101.5,264.5 88.5,264.5 75.5,264.5C 65.4822,249.966 59.8156,233.8 58.5,216C 58.0815,213.019 59.0815,210.686 61.5,209C 64.8168,208.502 68.1501,208.335 71.5,208.5 Z"/></g>
<g><path style="opacity:1" fill="#f9f7f7" d="M 136.5,208.5 C 138.167,208.5 139.833,208.5 141.5,208.5C 145.24,208.241 148.906,208.574 152.5,209.5C 154.69,229.624 149.69,247.957 137.5,264.5C 129.833,264.5 122.167,264.5 114.5,264.5C 128.46,248.56 135.793,229.893 136.5,208.5 Z"/></g>
<g><path style="opacity:1" fill="#fdd1a3" d="M 409.5,208.5 C 429.833,208.5 450.167,208.5 470.5,208.5C 470.5,215.833 470.5,223.167 470.5,230.5C 448.164,230.667 425.831,230.5 403.5,230C 403,229.5 402.5,229 402,228.5C 401.333,222.5 401.333,216.5 402,210.5C 404.135,208.722 406.635,208.055 409.5,208.5 Z"/></g>
<g><path style="opacity:0.988" fill="#ffbd86" d="M 470.5,208.5 C 478.5,208.5 486.5,208.5 494.5,208.5C 495.834,215.839 497.167,223.172 498.5,230.5C 489.167,230.5 479.833,230.5 470.5,230.5C 470.5,223.167 470.5,215.833 470.5,208.5 Z"/></g>
<g><path style="opacity:1" fill="#ec816c" d="M 168.5,226.5 C 175.937,246.478 182.603,266.811 188.5,287.5C 184.509,301.106 180.343,314.773 176,328.5C 169.746,334.718 163.579,341.052 157.5,347.5C 153.878,349.787 150.545,352.453 147.5,355.5C 147.5,349.167 147.5,342.833 147.5,336.5C 152.798,331.703 157.965,326.703 163,321.5C 168.304,307.94 171.304,293.94 172,279.5C 168.83,269.481 165.663,259.481 162.5,249.5C 164.097,241.712 166.097,234.046 168.5,226.5 Z"/></g>
<g><path style="opacity:1" fill="#ec816c" d="M 341.5,227.5 C 342.586,227.62 343.253,228.287 343.5,229.5C 346.685,241.246 350.019,252.913 353.5,264.5C 357.173,278.858 361.006,293.191 365,307.5C 370.706,314.707 377.206,321.04 384.5,326.5C 382.897,327.596 381.397,328.93 380,330.5C 375.99,326.263 371.49,325.596 366.5,328.5C 362.53,325.361 359.03,321.695 356,317.5C 350.659,298.134 345.326,278.801 340,259.5C 338.195,257.174 336.028,255.508 333.5,254.5C 336.166,245.501 338.833,236.501 341.5,227.5 Z"/></g>
<g><path style="opacity:0.992" fill="#e99a57" d="M 470.5,230.5 C 479.833,230.5 489.167,230.5 498.5,230.5C 500.03,241.775 500.697,253.108 500.5,264.5C 490.5,264.5 480.5,264.5 470.5,264.5C 470.5,253.167 470.5,241.833 470.5,230.5 Z"/></g>
<g><path style="opacity:1" fill="#f79580" d="M 162.5,249.5 C 165.663,259.481 168.83,269.481 172,279.5C 171.304,293.94 168.304,307.94 163,321.5C 157.965,326.703 152.798,331.703 147.5,336.5C 147.261,330.427 144.094,327.094 138,326.5C 135.077,326.795 132.743,328.129 131,330.5C 129.624,329.295 128.458,327.962 127.5,326.5C 132.83,321.337 138.33,316.337 144,311.5C 149.276,296.062 153.776,280.395 157.5,264.5C 159.542,259.627 161.208,254.627 162.5,249.5 Z"/></g>
<g><path style="opacity:1" fill="#f79580" d="M 333.5,254.5 C 336.028,255.508 338.195,257.174 340,259.5C 345.326,278.801 350.659,298.134 356,317.5C 359.03,321.695 362.53,325.361 366.5,328.5C 365.928,329.973 365.095,331.307 364,332.5C 363.5,339.826 363.334,347.159 363.5,354.5C 352.523,346.356 342.69,337.022 334,326.5C 330.761,313.52 326.928,300.853 322.5,288.5C 325.796,276.948 329.463,265.614 333.5,254.5 Z"/></g>
<g><path style="opacity:0.996" fill="#fee4c1" d="M 10.5,264.5 C 32.1667,264.5 53.8333,264.5 75.5,264.5C 88.5,264.5 101.5,264.5 114.5,264.5C 122.167,264.5 129.833,264.5 137.5,264.5C 144.167,264.5 150.833,264.5 157.5,264.5C 153.776,280.395 149.276,296.062 144,311.5C 138.33,316.337 132.83,321.337 127.5,326.5C 122.874,325.7 119.04,327.034 116,330.5C 111,325.167 106,325.167 101,330.5C 96.6204,325.657 91.9538,325.323 87,329.5C 85.8859,334.391 85.3859,339.391 85.5,344.5C 82.9764,355.499 86.6431,363.332 96.5,368C 99.146,368.497 101.813,368.664 104.5,368.5C 104.5,374.167 104.5,379.833 104.5,385.5C 91.7586,385.059 79.092,385.559 66.5,387C 62.687,389.124 60.187,392.291 59,396.5C 58.5006,401.823 58.334,407.156 58.5,412.5C 25.9225,368.763 9.92253,319.429 10.5,264.5 Z"/></g>
<g><path style="opacity:0.997" fill="#fee4c1" d="M 353.5,264.5 C 392.5,264.5 431.5,264.5 470.5,264.5C 480.5,264.5 490.5,264.5 500.5,264.5C 501.077,319.429 485.077,368.763 452.5,412.5C 452.666,406.824 452.499,401.157 452,395.5C 450.073,390.572 446.573,387.406 441.5,386C 429.838,385.5 418.171,385.333 406.5,385.5C 404.999,378.842 401.665,373.175 396.5,368.5C 402.176,368.666 407.843,368.499 413.5,368C 419.588,366.91 423.421,363.41 425,357.5C 425.667,348.833 425.667,340.167 425,331.5C 420.4,325.381 415.4,325.048 410,330.5C 404.963,325.288 399.963,325.288 395,330.5C 392.176,327.502 388.676,326.168 384.5,326.5C 377.206,321.04 370.706,314.707 365,307.5C 361.006,293.191 357.173,278.858 353.5,264.5 Z"/></g>
<g><path style="opacity:1" fill="#fee3c1" d="M 188.5,287.5 C 191.397,295.688 194.23,304.021 197,312.5C 197.708,313.381 198.542,314.047 199.5,314.5C 199.5,327.167 199.5,339.833 199.5,352.5C 198.5,352.5 197.5,352.5 196.5,352.5C 183.454,351.159 170.454,349.492 157.5,347.5C 163.579,341.052 169.746,334.718 176,328.5C 180.343,314.773 184.509,301.106 188.5,287.5 Z"/></g>
<g><path style="opacity:1" fill="#fee4c1" d="M 322.5,288.5 C 326.928,300.853 330.761,313.52 334,326.5C 342.69,337.022 352.523,346.356 363.5,354.5C 364.502,358.003 366.169,361.17 368.5,364C 367.584,364.278 366.918,364.778 366.5,365.5C 348.594,368.416 330.594,370.749 312.5,372.5C 311.833,372.5 311.5,372.167 311.5,371.5C 311.5,352.5 311.5,333.5 311.5,314.5C 312.496,314.586 313.329,314.252 314,313.5C 316.77,305.021 319.603,296.688 322.5,288.5 Z"/></g>
<g><path style="opacity:1" fill="#fea68e" d="M 199.5,314.5 C 228.167,314.5 256.833,314.5 285.5,314.5C 285.5,331.833 285.5,349.167 285.5,366.5C 273.07,365.058 260.737,363.058 248.5,360.5C 231.003,358.043 213.67,355.376 196.5,352.5C 197.5,352.5 198.5,352.5 199.5,352.5C 199.5,339.833 199.5,327.167 199.5,314.5 Z"/></g>
<g><path style="opacity:1" fill="#f89580" d="M 285.5,314.5 C 294.167,314.5 302.833,314.5 311.5,314.5C 311.5,333.5 311.5,352.5 311.5,371.5C 302.505,370.893 293.838,369.226 285.5,366.5C 285.5,349.167 285.5,331.833 285.5,314.5 Z"/></g>
<g><path style="opacity:1" fill="#fea78f" d="M 127.5,326.5 C 128.458,327.962 129.624,329.295 131,330.5C 132.743,328.129 135.077,326.795 138,326.5C 144.094,327.094 147.261,330.427 147.5,336.5C 147.5,342.833 147.5,349.167 147.5,355.5C 145.698,361.802 141.698,365.969 135.5,368C 125.172,368.5 114.839,368.666 104.5,368.5C 101.813,368.664 99.146,368.497 96.5,368C 86.6431,363.332 82.9764,355.499 85.5,344.5C 85.3859,339.391 85.8859,334.391 87,329.5C 91.9538,325.323 96.6204,325.657 101,330.5C 106,325.167 111,325.167 116,330.5C 119.04,327.034 122.874,325.7 127.5,326.5 Z"/></g>
<g><path style="opacity:1" fill="#fea78f" d="M 384.5,326.5 C 388.676,326.168 392.176,327.502 395,330.5C 399.963,325.288 404.963,325.288 410,330.5C 415.4,325.048 420.4,325.381 425,331.5C 425.667,340.167 425.667,348.833 425,357.5C 423.421,363.41 419.588,366.91 413.5,368C 407.843,368.499 402.176,368.666 396.5,368.5C 389.159,368.666 381.826,368.5 374.5,368C 372.231,365.977 369.564,365.144 366.5,365.5C 366.918,364.778 367.584,364.278 368.5,364C 366.169,361.17 364.502,358.003 363.5,354.5C 363.334,347.159 363.5,339.826 364,332.5C 365.095,331.307 365.928,329.973 366.5,328.5C 371.49,325.596 375.99,326.263 380,330.5C 381.397,328.93 382.897,327.596 384.5,326.5 Z"/></g>
<g><path style="opacity:1" fill="#fd646f" d="M 157.5,347.5 C 170.454,349.492 183.454,351.159 196.5,352.5C 213.67,355.376 231.003,358.043 248.5,360.5C 248.5,369.5 248.5,378.5 248.5,387.5C 235.991,390.031 223.324,392.365 210.5,394.5C 197.181,382.963 182.848,381.463 167.5,390C 163.8,394.035 159.8,397.702 155.5,401C 143.797,404.569 132.131,408.069 120.5,411.5C 120.167,411.5 119.833,411.5 119.5,411.5C 108.874,406.267 103.874,397.6 104.5,385.5C 104.5,379.833 104.5,374.167 104.5,368.5C 114.839,368.666 125.172,368.5 135.5,368C 141.698,365.969 145.698,361.802 147.5,355.5C 150.545,352.453 153.878,349.787 157.5,347.5 Z"/></g>
<g><path style="opacity:1" fill="#fecdbe" d="M 248.5,360.5 C 260.737,363.058 273.07,365.058 285.5,366.5C 293.838,369.226 302.505,370.893 311.5,371.5C 311.5,372.167 311.833,372.5 312.5,372.5C 296.713,375.478 280.713,377.978 264.5,380C 262.771,381.789 262.104,383.956 262.5,386.5C 257.848,386.998 253.181,387.331 248.5,387.5C 248.5,378.5 248.5,369.5 248.5,360.5 Z"/></g>
<g><path style="opacity:1" fill="#fe646f" d="M 366.5,365.5 C 369.564,365.144 372.231,365.977 374.5,368C 381.826,368.5 389.159,368.666 396.5,368.5C 401.665,373.175 404.999,378.842 406.5,385.5C 406.5,388.5 406.5,391.5 406.5,394.5C 403.348,405.151 396.348,411.984 385.5,415C 344.501,415.5 303.501,415.667 262.5,415.5C 262.5,405.833 262.5,396.167 262.5,386.5C 262.104,383.956 262.771,381.789 264.5,380C 280.713,377.978 296.713,375.478 312.5,372.5C 330.594,370.749 348.594,368.416 366.5,365.5 Z"/></g>
<g><path style="opacity:1" fill="#ffa68e" d="M 248.5,387.5 C 253.181,387.331 257.848,386.998 262.5,386.5C 262.5,396.167 262.5,405.833 262.5,415.5C 216.165,415.667 169.832,415.5 123.5,415C 121.574,414.578 120.574,413.411 120.5,411.5C 132.131,408.069 143.797,404.569 155.5,401C 159.8,397.702 163.8,394.035 167.5,390C 182.848,381.463 197.181,382.963 210.5,394.5C 223.324,392.365 235.991,390.031 248.5,387.5 Z"/></g>
<g><path style="opacity:0.999" fill="#bd80e0" d="M 104.5,385.5 C 103.874,397.6 108.874,406.267 119.5,411.5C 114.779,417.393 114.279,423.727 118,430.5C 119.579,432.041 121.413,433.208 123.5,434C 169.832,434.5 216.165,434.667 262.5,434.5C 299.5,434.5 336.5,434.5 373.5,434.5C 365.44,443.562 356.774,451.895 347.5,459.5C 266.5,459.5 185.5,459.5 104.5,459.5C 86.4798,446.48 71.1464,430.813 58.5,412.5C 58.334,407.156 58.5006,401.823 59,396.5C 60.187,392.291 62.687,389.124 66.5,387C 79.092,385.559 91.7586,385.059 104.5,385.5 Z"/></g>
<g><path style="opacity:1" fill="#af66d9" d="M 406.5,385.5 C 418.171,385.333 429.838,385.5 441.5,386C 446.573,387.406 450.073,390.572 452,395.5C 452.499,401.157 452.666,406.824 452.5,412.5C 439.854,430.813 424.52,446.48 406.5,459.5C 386.833,459.5 367.167,459.5 347.5,459.5C 356.774,451.895 365.44,443.562 373.5,434.5C 389.665,436.34 400.498,429.674 406,414.5C 406.5,407.842 406.666,401.175 406.5,394.5C 406.5,391.5 406.5,388.5 406.5,385.5 Z"/></g>
<g><path style="opacity:1" fill="#fc4755" d="M 406.5,394.5 C 406.666,401.175 406.5,407.842 406,414.5C 400.498,429.674 389.665,436.34 373.5,434.5C 336.5,434.5 299.5,434.5 262.5,434.5C 262.5,428.167 262.5,421.833 262.5,415.5C 303.501,415.667 344.501,415.5 385.5,415C 396.348,411.984 403.348,405.151 406.5,394.5 Z"/></g>
<g><path style="opacity:1" fill="#f79580" d="M 119.5,411.5 C 119.833,411.5 120.167,411.5 120.5,411.5C 120.574,413.411 121.574,414.578 123.5,415C 169.832,415.5 216.165,415.667 262.5,415.5C 262.5,421.833 262.5,428.167 262.5,434.5C 216.165,434.667 169.832,434.5 123.5,434C 121.413,433.208 119.579,432.041 118,430.5C 114.279,423.727 114.779,417.393 119.5,411.5 Z"/></g>
<g><path style="opacity:0.991" fill="#ffe5c2" d="M 104.5,459.5 C 185.5,459.5 266.5,459.5 347.5,459.5C 367.167,459.5 386.833,459.5 406.5,459.5C 368.661,489.342 325.661,506.675 277.5,511.5C 262.833,511.5 248.167,511.5 233.5,511.5C 185.335,506.674 142.335,489.341 104.5,459.5 Z"/></g>
</svg>
