<?xml version="1.0" encoding="UTF-8"?>
<!DOCTYPE svg PUBLIC "-//W3C//DTD SVG 1.1//EN" "http://www.w3.org/Graphics/SVG/1.1/DTD/svg11.dtd">
<svg xmlns="http://www.w3.org/2000/svg" version="1.1" width="512px" height="512px" style="shape-rendering:geometricPrecision; text-rendering:geometricPrecision; image-rendering:optimizeQuality; fill-rule:evenodd; clip-rule:evenodd" xmlns:xlink="http://www.w3.org/1999/xlink">
<g><path style="opacity:0.977" fill="#193c64" d="M 251.5,-0.5 C 254.167,-0.5 256.833,-0.5 259.5,-0.5C 265.15,18.5704 269.984,37.9037 274,57.5C 301.441,77.5946 327.107,99.9279 351,124.5C 353.394,130.276 354.061,136.276 353,142.5C 346.735,189.624 333.402,234.624 313,277.5C 314.361,287.079 314.695,296.745 314,306.5C 311.065,317.306 307.731,327.972 304,338.5C 303.188,346.222 303.522,353.889 305,361.5C 311.338,382.681 318.172,403.681 325.5,424.5C 336.845,420.414 348.512,417.747 360.5,416.5C 371.125,415.311 377.792,419.811 380.5,430C 379.91,432.196 379.243,434.362 378.5,436.5C 383.455,437.578 388.455,438.411 393.5,439C 409.338,444.488 416.171,455.655 414,472.5C 407.881,490.61 395.381,501.777 376.5,506C 366.806,508.45 357.14,510.283 347.5,511.5C 328.833,511.5 310.167,511.5 291.5,511.5C 274.354,509.948 257.021,508.948 239.5,508.5C 215.996,509.24 192.662,510.24 169.5,511.5C 153.167,511.5 136.833,511.5 120.5,511.5C 113.337,509.999 107.503,506.332 103,500.5C 100.578,491.153 103.411,483.653 111.5,478C 88.4822,469.138 82.3155,453.638 93,431.5C 100.392,423.121 109.559,417.621 120.5,415C 138.887,410.513 157.554,408.513 176.5,409C 184.125,392.46 189.958,375.293 194,357.5C 194.667,351.167 194.667,344.833 194,338.5C 189.807,327.775 186.473,316.775 184,305.5C 183.39,295.429 183.724,285.429 185,275.5C 180.554,268.942 176.887,261.942 174,254.5C 164.124,224.33 156.124,193.664 150,162.5C 147.875,152.252 146.875,141.919 147,131.5C 147.725,129.051 148.725,126.717 150,124.5C 173.25,100.402 198.417,78.7355 225.5,59.5C 229.999,40.8389 234.499,22.1723 239,3.5C 241.961,0.383724 245.461,-0.282943 249.5,1.5C 250.522,1.14451 251.189,0.477842 251.5,-0.5 Z M 250.5,77.5 C 271.495,97.6613 292.662,117.661 314,137.5C 314.61,141.236 314.277,144.903 313,148.5C 301.86,174.754 293.026,201.754 286.5,229.5C 281.847,230.496 277.181,231.496 272.5,232.5C 271.833,232.167 271.167,231.833 270.5,231.5C 267.349,224.666 266.849,217.666 269,210.5C 276.261,204.904 280.595,197.57 282,188.5C 289.505,185.998 293.672,180.831 294.5,173C 293.683,165.246 293.183,157.412 293,149.5C 290.423,137.339 284.089,127.672 274,120.5C 271.463,103.946 261.963,96.4465 245.5,98C 235.553,102.132 229.886,109.632 228.5,120.5C 217.315,128.211 210.815,138.878 209,152.5C 208.572,161.185 208.906,169.852 210,178.5C 211.853,183.527 215.353,186.527 220.5,187.5C 221.162,194.823 223.995,201.156 229,206.5C 231.468,215.822 230.634,224.822 226.5,233.5C 222.442,234.494 218.442,234.161 214.5,232.5C 207.769,205.141 198.936,178.474 188,152.5C 186.355,147.935 185.688,143.269 186,138.5C 208.302,119.031 229.802,98.6981 250.5,77.5 Z"/></g>
<g><path style="opacity:1" fill="#fbd3bf" d="M 257.5,18.5 C 258.254,34.1466 258.754,49.8133 259,65.5C 287.417,85.241 313.417,107.908 337,133.5C 337.328,153.875 334.661,173.875 329,193.5C 321.947,218.994 313.114,243.827 302.5,268C 302.164,269.03 301.497,269.53 300.5,269.5C 291.33,260.776 288.163,250.109 291,237.5C 298.823,207.534 308.49,178.201 320,149.5C 321.608,144.205 321.775,138.871 320.5,133.5C 298.198,113.2 276.198,92.533 254.5,71.5C 253.167,50.1667 253.167,28.8333 254.5,7.5C 256.379,10.8777 257.379,14.5443 257.5,18.5 Z"/></g>
<g><path style="opacity:1" fill="#fcd4c0" d="M 195.5,268.5 C 189.558,258.193 185.058,247.193 182,235.5C 177.404,217.046 172.404,198.713 167,180.5C 163.291,165.032 161.624,149.365 162,133.5C 172.44,120.725 183.94,108.892 196.5,98C 210.43,86.0677 224.93,74.9011 240,64.5C 241.731,48.8717 242.898,33.205 243.5,17.5C 243.205,14.2659 243.871,11.2659 245.5,8.5C 246.666,29.8255 246.833,51.1589 246,72.5C 223.667,93.5 201.333,114.5 179,135.5C 178.571,141.599 179.237,147.599 181,153.5C 192.273,179.653 200.94,206.653 207,234.5C 208.442,245.397 206.109,255.397 200,264.5C 198.629,266.041 197.129,267.375 195.5,268.5 Z"/></g>
<g><path style="opacity:1" fill="#f4c2ad" d="M 243.5,17.5 C 242.898,33.205 241.731,48.8717 240,64.5C 224.93,74.9011 210.43,86.0677 196.5,98C 183.94,108.892 172.44,120.725 162,133.5C 161.624,149.365 163.291,165.032 167,180.5C 172.404,198.713 177.404,217.046 182,235.5C 185.058,247.193 189.558,258.193 195.5,268.5C 194.014,270.559 192.18,271.225 190,270.5C 183.362,259.218 178.362,247.218 175,234.5C 169.198,213.626 163.865,192.626 159,171.5C 156.298,158.26 154.632,144.927 154,131.5C 165.534,118.299 178.034,106.133 191.5,95C 204.729,84.1375 218.229,73.6375 232,63.5C 235.524,47.9598 239.358,32.6265 243.5,17.5 Z"/></g>
<g><path style="opacity:1" fill="#f5c3ae" d="M 257.5,18.5 C 261.094,33.0071 264.594,47.6738 268,62.5C 284.074,73.9039 299.574,86.0706 314.5,99C 325.667,108.833 336.167,119.333 346,130.5C 344.018,159.078 338.685,187.078 330,214.5C 322.588,235.071 314.588,255.404 306,275.5C 303.96,273.63 302.127,271.63 300.5,269.5C 301.497,269.53 302.164,269.03 302.5,268C 313.114,243.827 321.947,218.994 329,193.5C 334.661,173.875 337.328,153.875 337,133.5C 313.417,107.908 287.417,85.241 259,65.5C 258.754,49.8133 258.254,34.1466 257.5,18.5 Z"/></g>
<g><path style="opacity:0.96" fill="#183b63" d="M 428.5,41.5 C 435.81,40.2148 441.976,42.2148 447,47.5C 455.402,40.402 464.236,39.902 473.5,46C 480.137,51.7106 482.304,58.8772 480,67.5C 472.906,84.15 462.073,97.9834 447.5,109C 446.167,109.667 444.833,109.667 443.5,109C 431.709,98.5518 422.209,86.3851 415,72.5C 409.965,57.7164 414.465,47.3831 428.5,41.5 Z"/></g>
<g><path style="opacity:1" fill="#ea529e" d="M 435.5,49.5 C 430.671,56.746 430.171,64.4127 434,72.5C 438.398,81.3137 444.231,88.9804 451.5,95.5C 450.001,98.5317 447.668,100.032 444.5,100C 433.998,90.8444 425.832,80.011 420,67.5C 419.01,59.9725 421.51,53.8059 427.5,49C 430.367,48.1993 433.034,48.3659 435.5,49.5 Z"/></g>
<g><path style="opacity:1" fill="#fd6ba7" d="M 435.5,49.5 C 436.922,49.7086 438.255,50.2086 439.5,51C 441.494,53.8274 443.828,56.3274 446.5,58.5C 449.172,56.3274 451.506,53.8274 453.5,51C 467.256,46.444 473.756,51.2774 473,65.5C 468.03,77.1195 460.863,87.1195 451.5,95.5C 444.231,88.9804 438.398,81.3137 434,72.5C 430.171,64.4127 430.671,56.746 435.5,49.5 Z"/></g>
<g><path style="opacity:0.959" fill="#183b62" d="M 49.5,53.5 C 51.4835,53.3832 53.1502,54.0499 54.5,55.5C 57.3723,61.4116 60.3723,67.245 63.5,73C 70.1039,74.5163 76.7706,75.8496 83.5,77C 85.3632,78.4178 85.8632,80.2511 85,82.5C 79.9849,87.3481 75.1515,92.3481 70.5,97.5C 72.7738,104.939 73.4404,112.439 72.5,120C 70.8333,120.667 69.1667,120.667 67.5,120C 62.2194,116.776 56.7194,113.943 51,111.5C 44.9272,115.036 38.5939,118.036 32,120.5C 30.6739,120.245 29.6739,119.578 29,118.5C 29.8832,111.196 30.5499,103.863 31,96.5C 25.3956,91.5697 20.5623,86.0697 16.5,80C 17.1667,79 17.8333,78 18.5,77C 25.673,76.0974 32.673,74.5974 39.5,72.5C 42.5912,65.9818 45.9246,59.6485 49.5,53.5 Z"/></g>
<g><path style="opacity:1" fill="#f9c87e" d="M 51.5,103.5 C 53.7445,93.7966 51.0778,86.13 43.5,80.5C 45.9867,75.5266 48.4867,70.5266 51,65.5C 53.7072,70.4155 56.5406,75.2488 59.5,80C 64.4538,81.1844 69.4538,82.1844 74.5,83C 71,86.5 67.5,90 64,93.5C 64.3333,99.1667 64.6667,104.833 65,110.5C 60.5204,108.011 56.0204,105.678 51.5,103.5 Z"/></g>
<g><path style="opacity:1" fill="#f9b44d" d="M 43.5,80.5 C 51.0778,86.13 53.7445,93.7966 51.5,103.5C 46.5765,105.295 41.9099,107.628 37.5,110.5C 37.1667,110 36.8333,109.5 36.5,109C 37.752,103.845 38.5854,98.678 39,93.5C 35.5,90 32,86.5 28.5,83C 33.3082,81.1067 38.3082,80.2734 43.5,80.5 Z"/></g>
<g><path style="opacity:1" fill="#fcd4c0" d="M 254.5,208.5 C 250.181,209.201 246.514,208.034 243.5,205C 239.204,199.907 236.371,194.074 235,187.5C 234.5,176.839 234.333,166.172 234.5,155.5C 240.718,154.058 246.052,151.058 250.5,146.5C 257.025,154.232 265.358,157.899 275.5,157.5C 275.666,167.506 275.5,177.506 275,187.5C 272.686,198.98 265.853,205.98 254.5,208.5 Z"/></g>
<g><path style="opacity:1" fill="#f3c1ad" d="M 234.5,155.5 C 234.333,166.172 234.5,176.839 235,187.5C 236.371,194.074 239.204,199.907 243.5,205C 246.514,208.034 250.181,209.201 254.5,208.5C 240.758,209.508 231.925,203.175 228,189.5C 227.5,178.505 227.333,167.505 227.5,156.5C 229.903,156.552 232.236,156.219 234.5,155.5 Z"/></g>
<g><path style="opacity:1" fill="#f7d1be" d="M 219.5,167.5 C 220.647,171.646 220.814,175.98 220,180.5C 215.52,176.315 215.353,171.982 219.5,167.5 Z"/></g>
<g><path style="opacity:1" fill="#e0c2b5" d="M 281.5,167.5 C 287.557,169.456 288.891,173.123 285.5,178.5C 284.672,179.415 283.672,180.081 282.5,180.5C 281.508,176.217 281.174,171.884 281.5,167.5 Z"/></g>
<g><path style="opacity:1" fill="#f3c1ad" d="M 244.5,215.5 C 244.071,224.279 241.738,232.612 237.5,240.5C 238.777,246.38 241.111,251.713 244.5,256.5C 231.543,250.25 228.71,240.917 236,228.5C 236.863,223.173 237.697,217.839 238.5,212.5C 240.604,213.519 242.604,214.519 244.5,215.5 Z"/></g>
<g><path style="opacity:1" fill="#fcd4c0" d="M 244.5,256.5 C 241.111,251.713 238.777,246.38 237.5,240.5C 241.738,232.612 244.071,224.279 244.5,215.5C 249.88,215.676 255.213,215.342 260.5,214.5C 260.1,222.232 261.6,229.566 265,236.5C 265.657,250.675 258.824,257.342 244.5,256.5 Z"/></g>
<g><path style="opacity:1" fill="#9898fe" d="M 204.5,377.5 C 209.489,363.839 210.656,349.839 208,335.5C 198.286,317.385 195.953,298.385 201,278.5C 216.629,271.258 223.462,258.924 221.5,241.5C 222.675,241.281 223.675,241.614 224.5,242.5C 228.307,257.729 237.974,264.563 253.5,263C 265.005,259.326 271.671,251.492 273.5,239.5C 277.389,238.189 281.389,237.522 285.5,237.5C 282.227,256.535 288.561,271.368 304.5,282C 305.893,283.171 306.727,284.671 307,286.5C 307.667,292.833 307.667,299.167 307,305.5C 304.934,313.365 302.267,321.032 299,328.5C 295.108,344.823 296.275,360.823 302.5,376.5C 284.344,379.866 266.011,381.2 247.5,380.5C 237.833,380.333 228.167,380.167 218.5,380C 213.542,379.971 208.876,379.138 204.5,377.5 Z"/></g>
<g><path style="opacity:1" fill="#8283f1" d="M 221.5,241.5 C 223.462,258.924 216.629,271.258 201,278.5C 195.953,298.385 198.286,317.385 208,335.5C 210.656,349.839 209.489,363.839 204.5,377.5C 201.833,377.5 199.167,377.5 196.5,377.5C 200.483,364.116 201.983,350.449 201,336.5C 198,327.167 195,317.833 192,308.5C 189.676,298.367 190.01,288.367 193,278.5C 207.657,269.75 214.49,256.75 213.5,239.5C 216.167,240.167 218.833,240.833 221.5,241.5 Z"/></g>
<g><path style="opacity:0.965" fill="#173c64" d="M 511.5,398.5 C 511.5,400.167 511.5,401.833 511.5,403.5C 507.03,408.802 502.03,413.636 496.5,418C 497.989,424.763 499.323,431.596 500.5,438.5C 500.392,439.442 500.059,440.275 499.5,441C 497.5,441.667 495.5,441.667 493.5,441C 488.325,437.912 482.992,435.079 477.5,432.5C 471.417,435.769 465.251,438.769 459,441.5C 456.446,441.42 454.946,440.086 454.5,437.5C 455.783,430.963 457.116,424.463 458.5,418C 452.706,412.883 447.706,407.216 443.5,401C 443.755,399.674 444.422,398.674 445.5,398C 451.803,396.814 458.136,395.814 464.5,395C 468.215,389.073 471.548,382.906 474.5,376.5C 476.611,373.956 478.778,373.956 481,376.5C 483.433,382.532 486.266,388.366 489.5,394C 496.779,395.731 504.113,397.231 511.5,398.5 Z"/></g>
<g><path style="opacity:0.96" fill="#143c63" d="M -0.5,409.5 C -0.5,405.5 -0.5,401.5 -0.5,397.5C 5.37857,384.561 15.0452,380.394 28.5,385C 30.0905,386.046 31.5905,387.213 33,388.5C 41.9833,382.068 51.15,381.901 60.5,388C 67.395,395.144 68.895,403.31 65,412.5C 58.4649,425.71 49.6316,437.21 38.5,447C 36.5471,448.633 34.3804,449.799 32,450.5C 23.7511,444.587 16.4177,437.587 10,429.5C 5.67109,423.172 2.17109,416.505 -0.5,409.5 Z"/></g>
<g><path style="opacity:1" fill="#eb529f" d="M 200.5,385.5 C 197.303,395.258 193.803,404.924 190,414.5C 189.506,416.134 189.34,417.801 189.5,419.5C 185.683,417.554 183.85,414.554 184,410.5C 186.872,402.05 190.039,393.716 193.5,385.5C 195.859,384.286 198.192,384.286 200.5,385.5 Z"/></g>
<g><path style="opacity:1" fill="#fd6ba7" d="M 189.5,419.5 C 189.34,417.801 189.506,416.134 190,414.5C 193.803,404.924 197.303,395.258 200.5,385.5C 226.418,388.852 252.418,389.352 278.5,387C 287.19,385.775 295.857,384.775 304.5,384C 309.498,397.654 313.665,411.488 317,425.5C 307.618,421.87 299.118,423.37 291.5,430C 288.833,433.333 286.167,436.667 283.5,440C 262.698,440.17 242.031,438.504 221.5,435C 209.346,432.579 198.68,427.412 189.5,419.5 Z"/></g>
<g><path style="opacity:1" fill="#f0f1f2" d="M 477.5,424.5 C 477.838,419.814 478.005,415.147 478,410.5C 475.283,407.29 472.783,403.956 470.5,400.5C 472.566,396.034 474.9,391.701 477.5,387.5C 480.041,392.082 482.707,396.582 485.5,401C 490.448,402.256 495.448,403.256 500.5,404C 497,407.5 493.5,411 490,414.5C 490.873,420.095 491.206,425.762 491,431.5C 486.525,429.013 482.025,426.68 477.5,424.5 Z"/></g>
<g><path style="opacity:1" fill="#4dad62" d="M 21.5,390.5 C 17.3166,396.643 16.4832,403.31 19,410.5C 22.8674,421.276 29.3674,429.943 38.5,436.5C 36.502,438.6 34.3353,440.6 32,442.5C 20.665,433.51 11.9983,422.51 6,409.5C 5.00182,400.996 8.16848,394.496 15.5,390C 17.7116,389.211 19.7116,389.378 21.5,390.5 Z"/></g>
<g><path style="opacity:1" fill="#64c780" d="M 21.5,390.5 C 22.9217,390.709 24.255,391.209 25.5,392C 27.5038,394.869 29.8371,397.369 32.5,399.5C 33.1667,399.333 33.8333,399.167 34.5,399C 39.4312,390.163 46.4312,388.163 55.5,393C 59.3049,397.091 60.4716,401.924 59,407.5C 54.2761,418.713 47.4428,428.38 38.5,436.5C 29.3674,429.943 22.8674,421.276 19,410.5C 16.4832,403.31 17.3166,396.643 21.5,390.5 Z"/></g>
<g><path style="opacity:1" fill="#dcdddd" d="M 470.5,400.5 C 472.783,403.956 475.283,407.29 478,410.5C 478.005,415.147 477.838,419.814 477.5,424.5C 472.975,426.68 468.475,429.013 464,431.5C 464.009,425.793 464.342,420.126 465,414.5C 461.5,411 458,407.5 454.5,404C 459.928,403.086 465.262,401.919 470.5,400.5 Z"/></g>
<g><path style="opacity:1" fill="#fe6ba7" d="M 250.5,462.5 C 226.246,466.431 201.912,469.931 177.5,473C 152.22,476.177 128.22,472.177 105.5,461C 102.271,458.259 98.9378,455.759 95.5,453.5C 93.8838,442.903 97.5504,434.736 106.5,429C 128.939,418.243 152.605,414.243 177.5,417C 189.837,430.508 205.171,438.841 223.5,442C 232.492,443.565 241.492,445.065 250.5,446.5C 249.218,451.832 249.218,457.166 250.5,462.5 Z"/></g>
<g><path style="opacity:1" fill="#fbd4c0" d="M 371.5,427.5 C 344.922,445.084 315.589,455.25 283.5,458C 275.813,458.268 268.147,458.768 260.5,459.5C 258.886,459.197 257.552,458.53 256.5,457.5C 256.5,453.833 256.5,450.167 256.5,446.5C 266.215,447.973 275.881,447.806 285.5,446C 289.816,441.752 294.15,437.419 298.5,433C 305.563,429.904 312.73,429.738 320,432.5C 333.487,428.878 347.154,426.211 361,424.5C 363.167,424.667 365.333,424.833 367.5,425C 369.32,425.2 370.653,426.034 371.5,427.5 Z"/></g>
<g><path style="opacity:1" fill="#f5c3ae" d="M 371.5,427.5 C 372.898,430.356 372.398,433.022 370,435.5C 356.578,445.46 341.745,452.627 325.5,457C 303.631,462.981 281.464,465.815 259,465.5C 257.659,462.978 256.826,460.311 256.5,457.5C 257.552,458.53 258.886,459.197 260.5,459.5C 268.147,458.768 275.813,458.268 283.5,458C 315.589,455.25 344.922,445.084 371.5,427.5 Z"/></g>
<g><path style="opacity:1" fill="#fd6ba7" d="M 406.5,473.5 C 394.142,486.503 378.809,493.336 360.5,494C 307.799,492.612 255.132,493.445 202.5,496.5C 199.645,496.497 196.978,496.164 194.5,495.5C 194.395,491.452 194.728,487.452 195.5,483.5C 235.854,477.902 276.188,472.068 316.5,466C 334.328,462.061 350.994,455.395 366.5,446C 375.925,443.806 385.259,444.14 394.5,447C 405.397,452.631 409.397,461.465 406.5,473.5 Z"/></g>
<g><path style="opacity:1" fill="#eb529f" d="M 95.5,453.5 C 98.9378,455.759 102.271,458.259 105.5,461C 128.22,472.177 152.22,476.177 177.5,473C 201.912,469.931 226.246,466.431 250.5,462.5C 251.306,463.997 251.972,465.664 252.5,467.5C 232.255,471.416 211.922,474.916 191.5,478C 174.854,479.407 158.187,479.74 141.5,479C 126.251,478.143 112.751,472.977 101,463.5C 98.8861,460.268 97.0528,456.935 95.5,453.5 Z"/></g>
<g><path style="opacity:1" fill="#eb529f" d="M 406.5,473.5 C 399.943,486.97 389.276,495.47 374.5,499C 356.114,503.472 337.447,505.639 318.5,505.5C 290.343,504.008 262.176,502.674 234,501.5C 220.501,501.939 207.001,502.273 193.5,502.5C 193.198,499.941 193.532,497.607 194.5,495.5C 196.978,496.164 199.645,496.497 202.5,496.5C 255.132,493.445 307.799,492.612 360.5,494C 378.809,493.336 394.142,486.503 406.5,473.5 Z"/></g>
<g><path style="opacity:1" fill="#fad3bf" d="M 188.5,495.5 C 165.838,496.348 143.171,496.514 120.5,496C 116.59,495.043 112.923,493.543 109.5,491.5C 112.007,486.322 116.007,482.989 121.5,481.5C 128.34,483.641 135.34,485.141 142.5,486C 157.843,486.598 173.176,486.431 188.5,485.5C 188.5,488.833 188.5,492.167 188.5,495.5 Z"/></g>
<g><path style="opacity:1" fill="#f6c3ae" d="M 109.5,491.5 C 112.923,493.543 116.59,495.043 120.5,496C 143.171,496.514 165.838,496.348 188.5,495.5C 187.629,498.112 186.963,500.779 186.5,503.5C 165.489,503.58 144.489,503.747 123.5,504C 118.69,503.509 114.356,501.842 110.5,499C 108.453,496.67 108.12,494.17 109.5,491.5 Z"/></g>
</svg>
